%TF.GenerationSoftware,KiCad,Pcbnew,(6.0.6)*%
%TF.CreationDate,2023-01-04T14:02:57+11:00*%
%TF.ProjectId,slime88,736c696d-6538-4382-9e6b-696361645f70,rev?*%
%TF.SameCoordinates,Original*%
%TF.FileFunction,Soldermask,Top*%
%TF.FilePolarity,Negative*%
%FSLAX46Y46*%
G04 Gerber Fmt 4.6, Leading zero omitted, Abs format (unit mm)*
G04 Created by KiCad (PCBNEW (6.0.6)) date 2023-01-04 14:02:57*
%MOMM*%
%LPD*%
G01*
G04 APERTURE LIST*
%ADD10C,3.048000*%
%ADD11C,3.987800*%
%ADD12C,0.500000*%
%ADD13C,0.650000*%
%ADD14R,0.600000X1.450000*%
%ADD15R,0.300000X1.450000*%
%ADD16O,1.000000X2.100000*%
%ADD17O,1.000000X1.600000*%
%ADD18R,1.700000X1.700000*%
%ADD19O,1.700000X1.700000*%
%ADD20C,1.750000*%
%ADD21C,3.300000*%
G04 APERTURE END LIST*
D10*
%TO.C,S5*%
X285365312Y-139280000D03*
X309177812Y-139280000D03*
D11*
X309177812Y-154520000D03*
X285365312Y-154520000D03*
%TD*%
%TO.C,S7*%
X237740312Y-157060000D03*
D10*
X123440312Y-172300000D03*
D11*
X123440312Y-157060000D03*
D10*
X237740312Y-172300000D03*
%TD*%
D11*
%TO.C,S2*%
X303304062Y-129596250D03*
X303304062Y-105783750D03*
D10*
X318544062Y-105783750D03*
X318544062Y-129596250D03*
%TD*%
%TO.C,S1*%
X292509062Y-82130000D03*
D11*
X316321562Y-97370000D03*
X292509062Y-97370000D03*
D10*
X316321562Y-82130000D03*
%TD*%
%TO.C,S6*%
X118650312Y-172300000D03*
X218662812Y-172300000D03*
D11*
X218662812Y-157060000D03*
X118650312Y-157060000D03*
%TD*%
D12*
%TO.C,J1*%
X324196562Y-58862500D03*
X329736562Y-58862500D03*
X324946562Y-58862500D03*
X330486562Y-58862500D03*
X327496562Y-58862500D03*
X321196562Y-58862500D03*
D13*
X328736562Y-54962500D03*
D12*
X322606562Y-58862500D03*
D13*
X322956562Y-54962500D03*
D12*
X328996562Y-58862500D03*
X328246562Y-58862500D03*
X326746562Y-58862500D03*
X321896562Y-58862500D03*
D14*
X329096562Y-56407500D03*
X328296562Y-56407500D03*
D15*
X327096562Y-56407500D03*
X326096562Y-56407500D03*
X325596562Y-56407500D03*
X324596562Y-56407500D03*
D14*
X323396562Y-56407500D03*
X322596562Y-56407500D03*
X322596562Y-56407500D03*
X323396562Y-56407500D03*
D15*
X324096562Y-56407500D03*
X325096562Y-56407500D03*
X326596562Y-56407500D03*
X327596562Y-56407500D03*
D14*
X328296562Y-56407500D03*
X329096562Y-56407500D03*
D16*
X321526562Y-55492500D03*
D17*
X321526562Y-51312500D03*
D16*
X330166562Y-55492500D03*
D17*
X330166562Y-51312500D03*
%TD*%
D10*
%TO.C,S3*%
X313940312Y-134200000D03*
D11*
X313940312Y-118960000D03*
X290127812Y-118960000D03*
D10*
X290127812Y-134200000D03*
%TD*%
D18*
%TO.C,J2*%
X328530000Y-142070000D03*
D19*
X331070000Y-142070000D03*
X333610000Y-142070000D03*
X336150000Y-142070000D03*
X338690000Y-142070000D03*
%TD*%
D11*
%TO.C,SW95*%
X240121562Y-165315000D03*
D20*
X235041562Y-165315000D03*
X245201562Y-165315000D03*
D21*
X236311562Y-162775000D03*
X242661562Y-160235000D03*
%TD*%
D20*
%TO.C,SW69*%
X296954062Y-127215000D03*
D11*
X302034062Y-127215000D03*
D20*
X307114062Y-127215000D03*
D21*
X298224062Y-124675000D03*
X304574062Y-122135000D03*
%TD*%
D20*
%TO.C,SW102*%
X332672812Y-165315000D03*
D11*
X337752812Y-165315000D03*
D20*
X342832812Y-165315000D03*
D21*
X333942812Y-162775000D03*
X340292812Y-160235000D03*
%TD*%
D20*
%TO.C,SW86*%
X361882812Y-146265000D03*
X351722812Y-146265000D03*
D11*
X356802812Y-146265000D03*
D21*
X352992812Y-143725000D03*
X359342812Y-141185000D03*
%TD*%
D11*
%TO.C,SW29*%
X256790312Y-89115000D03*
D20*
X251710312Y-89115000D03*
X261870312Y-89115000D03*
D21*
X252980312Y-86575000D03*
X259330312Y-84035000D03*
%TD*%
D20*
%TO.C,SW42*%
X146935312Y-108165000D03*
D11*
X152015312Y-108165000D03*
D20*
X157095312Y-108165000D03*
D21*
X148205312Y-105625000D03*
X154555312Y-103085000D03*
%TD*%
D11*
%TO.C,SW3*%
X90102812Y-65302500D03*
D20*
X95182812Y-65302500D03*
X85022812Y-65302500D03*
D21*
X86292812Y-62762500D03*
X92642812Y-60222500D03*
%TD*%
D20*
%TO.C,SW11*%
X257107812Y-65302500D03*
D11*
X252027812Y-65302500D03*
D20*
X246947812Y-65302500D03*
D21*
X248217812Y-62762500D03*
X254567812Y-60222500D03*
%TD*%
D20*
%TO.C,SW28*%
X232660312Y-89115000D03*
X242820312Y-89115000D03*
D11*
X237740312Y-89115000D03*
D21*
X233930312Y-86575000D03*
X240280312Y-84035000D03*
%TD*%
D11*
%TO.C,SW35*%
X356802812Y-89115000D03*
D20*
X351722812Y-89115000D03*
X361882812Y-89115000D03*
D21*
X352992812Y-86575000D03*
X359342812Y-84035000D03*
%TD*%
D20*
%TO.C,SW36*%
X370772812Y-89115000D03*
X380932812Y-89115000D03*
D11*
X375852812Y-89115000D03*
D21*
X372042812Y-86575000D03*
X378392812Y-84035000D03*
%TD*%
D20*
%TO.C,SW12*%
X265997812Y-65302500D03*
D11*
X271077812Y-65302500D03*
D20*
X276157812Y-65302500D03*
D21*
X267267812Y-62762500D03*
X273617812Y-60222500D03*
%TD*%
D20*
%TO.C,SW60*%
X142807812Y-127215000D03*
X132647812Y-127215000D03*
D11*
X137727812Y-127215000D03*
D21*
X133917812Y-124675000D03*
X140267812Y-122135000D03*
%TD*%
D11*
%TO.C,SW73*%
X90102812Y-146265000D03*
D20*
X95182812Y-146265000D03*
X85022812Y-146265000D03*
D21*
X86292812Y-143725000D03*
X92642812Y-141185000D03*
%TD*%
D20*
%TO.C,SW9*%
X214245312Y-65302500D03*
D11*
X209165312Y-65302500D03*
D20*
X204085312Y-65302500D03*
D21*
X205355312Y-62762500D03*
X211705312Y-60222500D03*
%TD*%
D20*
%TO.C,SW48*%
X261235312Y-108165000D03*
D11*
X266315312Y-108165000D03*
D20*
X271395312Y-108165000D03*
D21*
X262505312Y-105625000D03*
X268855312Y-103085000D03*
%TD*%
D20*
%TO.C,SW40*%
X108835312Y-108165000D03*
D11*
X113915312Y-108165000D03*
D20*
X118995312Y-108165000D03*
D21*
X110105312Y-105625000D03*
X116455312Y-103085000D03*
%TD*%
D20*
%TO.C,SW17*%
X370772812Y-65302500D03*
D11*
X375852812Y-65302500D03*
D20*
X380932812Y-65302500D03*
D21*
X372042812Y-62762500D03*
X378392812Y-60222500D03*
%TD*%
D20*
%TO.C,SW7*%
X176145312Y-65302500D03*
X165985312Y-65302500D03*
D11*
X171065312Y-65302500D03*
D21*
X167255312Y-62762500D03*
X173605312Y-60222500D03*
%TD*%
D20*
%TO.C,SW26*%
X194560312Y-89115000D03*
X204720312Y-89115000D03*
D11*
X199640312Y-89115000D03*
D21*
X195830312Y-86575000D03*
X202180312Y-84035000D03*
%TD*%
D11*
%TO.C,SW30*%
X275840312Y-89115000D03*
D20*
X270760312Y-89115000D03*
X280920312Y-89115000D03*
D21*
X272030312Y-86575000D03*
X278380312Y-84035000D03*
%TD*%
D20*
%TO.C,SW97*%
X269014062Y-165315000D03*
D11*
X263934062Y-165315000D03*
D20*
X258854062Y-165315000D03*
D21*
X267744062Y-167855000D03*
X261394062Y-170395000D03*
%TD*%
D11*
%TO.C,SW14*%
X313940312Y-65302500D03*
D20*
X308860312Y-65302500D03*
X319020312Y-65302500D03*
D21*
X310130312Y-62762500D03*
X316480312Y-60222500D03*
%TD*%
D11*
%TO.C,SW65*%
X232977812Y-127215000D03*
D20*
X227897812Y-127215000D03*
X238057812Y-127215000D03*
D21*
X229167812Y-124675000D03*
X235517812Y-122135000D03*
%TD*%
D11*
%TO.C,SW99*%
X287746562Y-165315000D03*
D20*
X292826562Y-165315000D03*
X282666562Y-165315000D03*
D21*
X291556562Y-167855000D03*
X285206562Y-170395000D03*
%TD*%
D11*
%TO.C,SW24*%
X161540312Y-89115000D03*
D20*
X156460312Y-89115000D03*
X166620312Y-89115000D03*
D21*
X157730312Y-86575000D03*
X164080312Y-84035000D03*
%TD*%
D11*
%TO.C,SW87*%
X49621562Y-165315000D03*
D20*
X44541562Y-165315000D03*
X54701562Y-165315000D03*
D21*
X45811562Y-162775000D03*
X52161562Y-160235000D03*
%TD*%
D20*
%TO.C,SW92*%
X104707812Y-165315000D03*
X94547812Y-165315000D03*
D11*
X99627812Y-165315000D03*
D21*
X103437812Y-167855000D03*
X97087812Y-170395000D03*
%TD*%
D20*
%TO.C,SW76*%
X142172812Y-146265000D03*
X152332812Y-146265000D03*
D11*
X147252812Y-146265000D03*
D21*
X143442812Y-143725000D03*
X149792812Y-141185000D03*
%TD*%
D20*
%TO.C,SW53*%
X351722812Y-108165000D03*
X361882812Y-108165000D03*
D11*
X356802812Y-108165000D03*
D21*
X352992812Y-105625000D03*
X359342812Y-103085000D03*
%TD*%
D11*
%TO.C,SW61*%
X156777812Y-127215000D03*
D20*
X161857812Y-127215000D03*
X151697812Y-127215000D03*
D21*
X152967812Y-124675000D03*
X159317812Y-122135000D03*
%TD*%
D20*
%TO.C,SW51*%
X306479062Y-117690000D03*
X316639062Y-117690000D03*
D11*
X311559062Y-117690000D03*
D21*
X307749062Y-115150000D03*
X314099062Y-112610000D03*
%TD*%
D11*
%TO.C,SW37*%
X52002812Y-108165000D03*
D20*
X46922812Y-108165000D03*
X57082812Y-108165000D03*
D21*
X48192812Y-105625000D03*
X54542812Y-103085000D03*
%TD*%
D20*
%TO.C,SW62*%
X180907812Y-127215000D03*
D11*
X175827812Y-127215000D03*
D20*
X170747812Y-127215000D03*
D21*
X172017812Y-124675000D03*
X178367812Y-122135000D03*
%TD*%
D20*
%TO.C,SW72*%
X65972812Y-146265000D03*
X76132812Y-146265000D03*
D11*
X71052812Y-146265000D03*
D21*
X74862812Y-148805000D03*
X68512812Y-151345000D03*
%TD*%
D20*
%TO.C,SW34*%
X342832812Y-89115000D03*
D11*
X337752812Y-89115000D03*
D20*
X332672812Y-89115000D03*
D21*
X333942812Y-86575000D03*
X340292812Y-84035000D03*
%TD*%
D20*
%TO.C,SW31*%
X289810312Y-89115000D03*
D11*
X294890312Y-89115000D03*
D20*
X299970312Y-89115000D03*
D21*
X298700312Y-91655000D03*
X292350312Y-94195000D03*
%TD*%
D20*
%TO.C,SW43*%
X176145312Y-108165000D03*
X165985312Y-108165000D03*
D11*
X171065312Y-108165000D03*
D21*
X167255312Y-105625000D03*
X173605312Y-103085000D03*
%TD*%
D20*
%TO.C,SW5*%
X133282812Y-65302500D03*
D11*
X128202812Y-65302500D03*
D20*
X123122812Y-65302500D03*
D21*
X124392812Y-62762500D03*
X130742812Y-60222500D03*
%TD*%
D11*
%TO.C,SW96*%
X261552812Y-165315000D03*
D20*
X256472812Y-165315000D03*
X266632812Y-165315000D03*
D21*
X257742812Y-162775000D03*
X264092812Y-160235000D03*
%TD*%
D20*
%TO.C,SW74*%
X104072812Y-146265000D03*
D11*
X109152812Y-146265000D03*
D20*
X114232812Y-146265000D03*
D21*
X105342812Y-143725000D03*
X111692812Y-141185000D03*
%TD*%
D10*
%TO.C,S4*%
X47240312Y-139280000D03*
D11*
X47240312Y-154520000D03*
X71052812Y-154520000D03*
D10*
X71052812Y-139280000D03*
%TD*%
D11*
%TO.C,SW82*%
X261552812Y-146265000D03*
D20*
X266632812Y-146265000D03*
X256472812Y-146265000D03*
D21*
X257742812Y-143725000D03*
X264092812Y-141185000D03*
%TD*%
D20*
%TO.C,SW98*%
X290445312Y-165315000D03*
D11*
X285365312Y-165315000D03*
D20*
X280285312Y-165315000D03*
D21*
X281555312Y-162775000D03*
X287905312Y-160235000D03*
%TD*%
D11*
%TO.C,SW49*%
X285365312Y-108165000D03*
D20*
X290445312Y-108165000D03*
X280285312Y-108165000D03*
D21*
X281555312Y-105625000D03*
X287905312Y-103085000D03*
%TD*%
D20*
%TO.C,SW89*%
X78514062Y-165315000D03*
D11*
X73434062Y-165315000D03*
D20*
X68354062Y-165315000D03*
D21*
X69624062Y-162775000D03*
X75974062Y-160235000D03*
%TD*%
D20*
%TO.C,SW58*%
X104707812Y-127215000D03*
X94547812Y-127215000D03*
D11*
X99627812Y-127215000D03*
D21*
X95817812Y-124675000D03*
X102167812Y-122135000D03*
%TD*%
D11*
%TO.C,SW75*%
X128202812Y-146265000D03*
D20*
X133282812Y-146265000D03*
X123122812Y-146265000D03*
D21*
X124392812Y-143725000D03*
X130742812Y-141185000D03*
%TD*%
D20*
%TO.C,SW2*%
X76132812Y-65302500D03*
X65972812Y-65302500D03*
D11*
X71052812Y-65302500D03*
D21*
X67242812Y-62762500D03*
X73592812Y-60222500D03*
%TD*%
D20*
%TO.C,SW32*%
X299335312Y-89115000D03*
X309495312Y-89115000D03*
D11*
X304415312Y-89115000D03*
D21*
X300605312Y-86575000D03*
X306955312Y-84035000D03*
%TD*%
D20*
%TO.C,SW80*%
X228532812Y-146265000D03*
X218372812Y-146265000D03*
D11*
X223452812Y-146265000D03*
D21*
X219642812Y-143725000D03*
X225992812Y-141185000D03*
%TD*%
D11*
%TO.C,SW56*%
X54384062Y-127215000D03*
D20*
X49304062Y-127215000D03*
X59464062Y-127215000D03*
D21*
X58194062Y-129755000D03*
X51844062Y-132295000D03*
%TD*%
D20*
%TO.C,SW66*%
X246947812Y-127215000D03*
X257107812Y-127215000D03*
D11*
X252027812Y-127215000D03*
D21*
X248217812Y-124675000D03*
X254567812Y-122135000D03*
%TD*%
D20*
%TO.C,SW22*%
X128520312Y-89115000D03*
X118360312Y-89115000D03*
D11*
X123440312Y-89115000D03*
D21*
X119630312Y-86575000D03*
X125980312Y-84035000D03*
%TD*%
D11*
%TO.C,SW4*%
X109152812Y-65302500D03*
D20*
X114232812Y-65302500D03*
X104072812Y-65302500D03*
D21*
X105342812Y-62762500D03*
X111692812Y-60222500D03*
%TD*%
D20*
%TO.C,SW84*%
X292191562Y-146265000D03*
X302351562Y-146265000D03*
D11*
X297271562Y-146265000D03*
D21*
X293461562Y-143725000D03*
X299811562Y-141185000D03*
%TD*%
D20*
%TO.C,SW45*%
X214245312Y-108165000D03*
D11*
X209165312Y-108165000D03*
D20*
X204085312Y-108165000D03*
D21*
X205355312Y-105625000D03*
X211705312Y-103085000D03*
%TD*%
D11*
%TO.C,SW78*%
X185352812Y-146265000D03*
D20*
X190432812Y-146265000D03*
X180272812Y-146265000D03*
D21*
X181542812Y-143725000D03*
X187892812Y-141185000D03*
%TD*%
D11*
%TO.C,SW16*%
X356802812Y-65302500D03*
D20*
X351722812Y-65302500D03*
X361882812Y-65302500D03*
D21*
X352992812Y-62762500D03*
X359342812Y-60222500D03*
%TD*%
D20*
%TO.C,SW104*%
X380932812Y-165315000D03*
D11*
X375852812Y-165315000D03*
D20*
X370772812Y-165315000D03*
D21*
X372042812Y-162775000D03*
X378392812Y-160235000D03*
%TD*%
D20*
%TO.C,SW59*%
X123757812Y-127215000D03*
D11*
X118677812Y-127215000D03*
D20*
X113597812Y-127215000D03*
D21*
X114867812Y-124675000D03*
X121217812Y-122135000D03*
%TD*%
D20*
%TO.C,SW79*%
X199322812Y-146265000D03*
D11*
X204402812Y-146265000D03*
D20*
X209482812Y-146265000D03*
D21*
X200592812Y-143725000D03*
X206942812Y-141185000D03*
%TD*%
D20*
%TO.C,SW47*%
X242185312Y-108165000D03*
D11*
X247265312Y-108165000D03*
D20*
X252345312Y-108165000D03*
D21*
X243455312Y-105625000D03*
X249805312Y-103085000D03*
%TD*%
D20*
%TO.C,SW25*%
X185670312Y-89115000D03*
D11*
X180590312Y-89115000D03*
D20*
X175510312Y-89115000D03*
D21*
X176780312Y-86575000D03*
X183130312Y-84035000D03*
%TD*%
D11*
%TO.C,SW44*%
X190115312Y-108165000D03*
D20*
X195195312Y-108165000D03*
X185035312Y-108165000D03*
D21*
X186305312Y-105625000D03*
X192655312Y-103085000D03*
%TD*%
D20*
%TO.C,SW13*%
X285047812Y-65302500D03*
X295207812Y-65302500D03*
D11*
X290127812Y-65302500D03*
D21*
X286317812Y-62762500D03*
X292667812Y-60222500D03*
%TD*%
D11*
%TO.C,SW77*%
X166302812Y-146265000D03*
D20*
X161222812Y-146265000D03*
X171382812Y-146265000D03*
D21*
X162492812Y-143725000D03*
X168842812Y-141185000D03*
%TD*%
D20*
%TO.C,SW83*%
X292826562Y-146265000D03*
X282666562Y-146265000D03*
D11*
X287746562Y-146265000D03*
D21*
X291556562Y-148805000D03*
X285206562Y-151345000D03*
%TD*%
D11*
%TO.C,SW63*%
X194877812Y-127215000D03*
D20*
X199957812Y-127215000D03*
X189797812Y-127215000D03*
D21*
X191067812Y-124675000D03*
X197417812Y-122135000D03*
%TD*%
D20*
%TO.C,SW52*%
X342832812Y-108165000D03*
X332672812Y-108165000D03*
D11*
X337752812Y-108165000D03*
D21*
X333942812Y-105625000D03*
X340292812Y-103085000D03*
%TD*%
D11*
%TO.C,SW46*%
X228215312Y-108165000D03*
D20*
X233295312Y-108165000D03*
X223135312Y-108165000D03*
D21*
X224405312Y-105625000D03*
X230755312Y-103085000D03*
%TD*%
D20*
%TO.C,SW23*%
X147570312Y-89115000D03*
X137410312Y-89115000D03*
D11*
X142490312Y-89115000D03*
D21*
X138680312Y-86575000D03*
X145030312Y-84035000D03*
%TD*%
D20*
%TO.C,SW101*%
X316639062Y-165315000D03*
D11*
X311559062Y-165315000D03*
D20*
X306479062Y-165315000D03*
D21*
X315369062Y-167855000D03*
X309019062Y-170395000D03*
%TD*%
D20*
%TO.C,SW55*%
X54701562Y-127215000D03*
D11*
X49621562Y-127215000D03*
D20*
X44541562Y-127215000D03*
D21*
X45811562Y-124675000D03*
X52161562Y-122135000D03*
%TD*%
D11*
%TO.C,SW38*%
X75815312Y-108165000D03*
D20*
X70735312Y-108165000D03*
X80895312Y-108165000D03*
D21*
X72005312Y-105625000D03*
X78355312Y-103085000D03*
%TD*%
D20*
%TO.C,SW21*%
X109470312Y-89115000D03*
X99310312Y-89115000D03*
D11*
X104390312Y-89115000D03*
D21*
X100580312Y-86575000D03*
X106930312Y-84035000D03*
%TD*%
D20*
%TO.C,SW15*%
X342832812Y-65302500D03*
D11*
X337752812Y-65302500D03*
D20*
X332672812Y-65302500D03*
D21*
X333942812Y-62762500D03*
X340292812Y-60222500D03*
%TD*%
D11*
%TO.C,SW81*%
X242502812Y-146265000D03*
D20*
X237422812Y-146265000D03*
X247582812Y-146265000D03*
D21*
X238692812Y-143725000D03*
X245042812Y-141185000D03*
%TD*%
D11*
%TO.C,SW8*%
X190115312Y-65302500D03*
D20*
X185035312Y-65302500D03*
X195195312Y-65302500D03*
D21*
X186305312Y-62762500D03*
X192655312Y-60222500D03*
%TD*%
D20*
%TO.C,SW70*%
X54701562Y-146265000D03*
X44541562Y-146265000D03*
D11*
X49621562Y-146265000D03*
D21*
X53431562Y-148805000D03*
X47081562Y-151345000D03*
%TD*%
D20*
%TO.C,SW19*%
X61210312Y-89115000D03*
D11*
X66290312Y-89115000D03*
D20*
X71370312Y-89115000D03*
D21*
X62480312Y-86575000D03*
X68830312Y-84035000D03*
%TD*%
D20*
%TO.C,SW68*%
X295207812Y-127215000D03*
X285047812Y-127215000D03*
D11*
X290127812Y-127215000D03*
D21*
X286317812Y-124675000D03*
X292667812Y-122135000D03*
%TD*%
D20*
%TO.C,SW6*%
X146935312Y-65302500D03*
X157095312Y-65302500D03*
D11*
X152015312Y-65302500D03*
D21*
X148205312Y-62762500D03*
X154555312Y-60222500D03*
%TD*%
D20*
%TO.C,SW50*%
X314257812Y-108165000D03*
X304097812Y-108165000D03*
D11*
X309177812Y-108165000D03*
D21*
X312987812Y-110705000D03*
X306637812Y-113245000D03*
%TD*%
D20*
%TO.C,SW1*%
X42160312Y-65302500D03*
D11*
X47240312Y-65302500D03*
D20*
X52320312Y-65302500D03*
D21*
X43430312Y-62762500D03*
X49780312Y-60222500D03*
%TD*%
D11*
%TO.C,SW64*%
X213927812Y-127215000D03*
D20*
X219007812Y-127215000D03*
X208847812Y-127215000D03*
D21*
X210117812Y-124675000D03*
X216467812Y-122135000D03*
%TD*%
D11*
%TO.C,SW10*%
X232977812Y-65302500D03*
D20*
X238057812Y-65302500D03*
X227897812Y-65302500D03*
D21*
X229167812Y-62762500D03*
X235517812Y-60222500D03*
%TD*%
D18*
%TO.C,J4*%
X378845312Y-128457500D03*
D19*
X378845312Y-130997500D03*
X378845312Y-133537500D03*
X378845312Y-136077500D03*
X378845312Y-138617500D03*
X378845312Y-141157500D03*
X378845312Y-143697500D03*
X378845312Y-146237500D03*
X378845312Y-148777500D03*
X378845312Y-151317500D03*
%TD*%
D20*
%TO.C,SW71*%
X54066562Y-146265000D03*
X64226562Y-146265000D03*
D11*
X59146562Y-146265000D03*
D21*
X55336562Y-143725000D03*
X61686562Y-141185000D03*
%TD*%
D20*
%TO.C,SW33*%
X308860312Y-89115000D03*
X319020312Y-89115000D03*
D11*
X313940312Y-89115000D03*
D21*
X317750312Y-91655000D03*
X311400312Y-94195000D03*
%TD*%
D11*
%TO.C,SW93*%
X168684062Y-165315000D03*
D20*
X173764062Y-165315000D03*
X163604062Y-165315000D03*
D21*
X164874062Y-162775000D03*
X171224062Y-160235000D03*
%TD*%
D18*
%TO.C,SW0*%
X357910000Y-113870000D03*
D19*
X355370000Y-113870000D03*
%TD*%
D11*
%TO.C,SW103*%
X356802812Y-165315000D03*
D20*
X361882812Y-165315000D03*
X351722812Y-165315000D03*
D21*
X352992812Y-162775000D03*
X359342812Y-160235000D03*
%TD*%
D20*
%TO.C,SW67*%
X276157812Y-127215000D03*
D11*
X271077812Y-127215000D03*
D20*
X265997812Y-127215000D03*
D21*
X267267812Y-124675000D03*
X273617812Y-122135000D03*
%TD*%
D20*
%TO.C,SW88*%
X57082812Y-165315000D03*
X46922812Y-165315000D03*
D11*
X52002812Y-165315000D03*
D21*
X55812812Y-167855000D03*
X49462812Y-170395000D03*
%TD*%
D11*
%TO.C,SW57*%
X80577812Y-127215000D03*
D20*
X75497812Y-127215000D03*
X85657812Y-127215000D03*
D21*
X76767812Y-124675000D03*
X83117812Y-122135000D03*
%TD*%
D20*
%TO.C,SW85*%
X319020312Y-146265000D03*
D11*
X313940312Y-146265000D03*
D20*
X308860312Y-146265000D03*
D21*
X317750312Y-148805000D03*
X311400312Y-151345000D03*
%TD*%
D20*
%TO.C,SW39*%
X89785312Y-108165000D03*
X99945312Y-108165000D03*
D11*
X94865312Y-108165000D03*
D21*
X91055312Y-105625000D03*
X97405312Y-103085000D03*
%TD*%
D11*
%TO.C,SW90*%
X75815312Y-165315000D03*
D20*
X80895312Y-165315000D03*
X70735312Y-165315000D03*
D21*
X79625312Y-167855000D03*
X73275312Y-170395000D03*
%TD*%
D11*
%TO.C,SW20*%
X85340312Y-89115000D03*
D20*
X90420312Y-89115000D03*
X80260312Y-89115000D03*
D21*
X81530312Y-86575000D03*
X87880312Y-84035000D03*
%TD*%
D20*
%TO.C,SW18*%
X42160312Y-89115000D03*
X52320312Y-89115000D03*
D11*
X47240312Y-89115000D03*
D21*
X43430312Y-86575000D03*
X49780312Y-84035000D03*
%TD*%
D20*
%TO.C,SW91*%
X102326562Y-165315000D03*
X92166562Y-165315000D03*
D11*
X97246562Y-165315000D03*
D21*
X93436562Y-162775000D03*
X99786562Y-160235000D03*
%TD*%
D20*
%TO.C,SW100*%
X304097812Y-165315000D03*
X314257812Y-165315000D03*
D11*
X309177812Y-165315000D03*
D21*
X305367812Y-162775000D03*
X311717812Y-160235000D03*
%TD*%
D11*
%TO.C,SW94*%
X180590312Y-165315000D03*
D20*
X175510312Y-165315000D03*
X185670312Y-165315000D03*
D21*
X184400312Y-167855000D03*
X178050312Y-170395000D03*
%TD*%
D11*
%TO.C,SW54*%
X375852812Y-108165000D03*
D20*
X380932812Y-108165000D03*
X370772812Y-108165000D03*
D21*
X372042812Y-105625000D03*
X378392812Y-103085000D03*
%TD*%
D20*
%TO.C,SW27*%
X213610312Y-89115000D03*
X223770312Y-89115000D03*
D11*
X218690312Y-89115000D03*
D21*
X214880312Y-86575000D03*
X221230312Y-84035000D03*
%TD*%
D11*
%TO.C,SW41*%
X132965312Y-108165000D03*
D20*
X127885312Y-108165000D03*
X138045312Y-108165000D03*
D21*
X129155312Y-105625000D03*
X135505312Y-103085000D03*
%TD*%
M02*
