M48
; DRILL file {KiCad (6.0.6)} date Wed Jan  4 14:03:08 2023
; FORMAT={-:-/ absolute / metric / decimal}
; #@! TF.CreationDate,2023-01-04T14:03:08+11:00
; #@! TF.GenerationSoftware,Kicad,Pcbnew,(6.0.6)
; #@! TF.FileFunction,NonPlated,1,2,NPTH
FMAT,2
METRIC
; #@! TA.AperFunction,NonPlated,NPTH,ComponentDrill
T1C0.500
; #@! TA.AperFunction,NonPlated,NPTH,ComponentDrill
T2C0.650
; #@! TA.AperFunction,NonPlated,NPTH,ComponentDrill
T3C1.750
; #@! TA.AperFunction,NonPlated,NPTH,ComponentDrill
T4C3.048
; #@! TA.AperFunction,NonPlated,NPTH,ComponentDrill
T5C3.988
%
G90
G05
T1
X321.197Y-58.862
X321.897Y-58.862
X322.607Y-58.862
X324.197Y-58.862
X324.947Y-58.862
X326.747Y-58.862
X327.497Y-58.862
X328.247Y-58.862
X328.997Y-58.862
X329.737Y-58.862
X330.487Y-58.862
T2
X322.957Y-54.962
X328.737Y-54.962
T3
X42.16Y-65.302
X42.16Y-89.115
X44.542Y-127.215
X44.542Y-146.265
X44.542Y-165.315
X46.923Y-108.165
X46.923Y-165.315
X49.304Y-127.215
X52.32Y-65.302
X52.32Y-89.115
X54.067Y-146.265
X54.702Y-127.215
X54.702Y-146.265
X54.702Y-165.315
X57.083Y-108.165
X57.083Y-165.315
X59.464Y-127.215
X61.21Y-89.115
X64.227Y-146.265
X65.973Y-65.302
X65.973Y-146.265
X68.354Y-165.315
X70.735Y-108.165
X70.735Y-165.315
X71.37Y-89.115
X75.498Y-127.215
X76.133Y-65.302
X76.133Y-146.265
X78.514Y-165.315
X80.26Y-89.115
X80.895Y-108.165
X80.895Y-165.315
X85.023Y-65.302
X85.023Y-146.265
X85.658Y-127.215
X89.785Y-108.165
X90.42Y-89.115
X92.167Y-165.315
X94.548Y-127.215
X94.548Y-165.315
X95.183Y-65.302
X95.183Y-146.265
X99.31Y-89.115
X99.945Y-108.165
X102.327Y-165.315
X104.073Y-65.302
X104.073Y-146.265
X104.708Y-127.215
X104.708Y-165.315
X108.835Y-108.165
X109.47Y-89.115
X113.598Y-127.215
X114.233Y-65.302
X114.233Y-146.265
X118.36Y-89.115
X118.995Y-108.165
X123.123Y-65.302
X123.123Y-146.265
X123.758Y-127.215
X127.885Y-108.165
X128.52Y-89.115
X132.648Y-127.215
X133.283Y-65.302
X133.283Y-146.265
X137.41Y-89.115
X138.045Y-108.165
X142.173Y-146.265
X142.808Y-127.215
X146.935Y-65.302
X146.935Y-108.165
X147.57Y-89.115
X151.698Y-127.215
X152.333Y-146.265
X156.46Y-89.115
X157.095Y-65.302
X157.095Y-108.165
X161.223Y-146.265
X161.858Y-127.215
X163.604Y-165.315
X165.985Y-65.302
X165.985Y-108.165
X166.62Y-89.115
X170.748Y-127.215
X171.383Y-146.265
X173.764Y-165.315
X175.51Y-89.115
X175.51Y-165.315
X176.145Y-65.302
X176.145Y-108.165
X180.273Y-146.265
X180.908Y-127.215
X185.035Y-65.302
X185.035Y-108.165
X185.67Y-89.115
X185.67Y-165.315
X189.798Y-127.215
X190.433Y-146.265
X194.56Y-89.115
X195.195Y-65.302
X195.195Y-108.165
X199.323Y-146.265
X199.958Y-127.215
X204.085Y-65.302
X204.085Y-108.165
X204.72Y-89.115
X208.848Y-127.215
X209.483Y-146.265
X213.61Y-89.115
X214.245Y-65.302
X214.245Y-108.165
X218.373Y-146.265
X219.008Y-127.215
X223.135Y-108.165
X223.77Y-89.115
X227.898Y-65.302
X227.898Y-127.215
X228.533Y-146.265
X232.66Y-89.115
X233.295Y-108.165
X235.042Y-165.315
X237.423Y-146.265
X238.058Y-65.302
X238.058Y-127.215
X242.185Y-108.165
X242.82Y-89.115
X245.202Y-165.315
X246.948Y-65.302
X246.948Y-127.215
X247.583Y-146.265
X251.71Y-89.115
X252.345Y-108.165
X256.473Y-146.265
X256.473Y-165.315
X257.108Y-65.302
X257.108Y-127.215
X258.854Y-165.315
X261.235Y-108.165
X261.87Y-89.115
X265.998Y-65.302
X265.998Y-127.215
X266.633Y-146.265
X266.633Y-165.315
X269.014Y-165.315
X270.76Y-89.115
X271.395Y-108.165
X276.158Y-65.302
X276.158Y-127.215
X280.285Y-108.165
X280.285Y-165.315
X280.92Y-89.115
X282.667Y-146.265
X282.667Y-165.315
X285.048Y-65.302
X285.048Y-127.215
X289.81Y-89.115
X290.445Y-108.165
X290.445Y-165.315
X292.192Y-146.265
X292.827Y-146.265
X292.827Y-165.315
X295.208Y-65.302
X295.208Y-127.215
X296.954Y-127.215
X299.335Y-89.115
X299.97Y-89.115
X302.352Y-146.265
X304.098Y-108.165
X304.098Y-165.315
X306.479Y-117.69
X306.479Y-165.315
X307.114Y-127.215
X308.86Y-65.302
X308.86Y-89.115
X308.86Y-146.265
X309.495Y-89.115
X314.258Y-108.165
X314.258Y-165.315
X316.639Y-117.69
X316.639Y-165.315
X319.02Y-65.302
X319.02Y-89.115
X319.02Y-146.265
X332.673Y-65.302
X332.673Y-89.115
X332.673Y-108.165
X332.673Y-165.315
X342.833Y-65.302
X342.833Y-89.115
X342.833Y-108.165
X342.833Y-165.315
X351.723Y-65.302
X351.723Y-89.115
X351.723Y-108.165
X351.723Y-146.265
X351.723Y-165.315
X361.883Y-65.302
X361.883Y-89.115
X361.883Y-108.165
X361.883Y-146.265
X361.883Y-165.315
X370.773Y-65.302
X370.773Y-89.115
X370.773Y-108.165
X370.773Y-165.315
X380.933Y-65.302
X380.933Y-89.115
X380.933Y-108.165
X380.933Y-165.315
T4
X47.24Y-139.28
X71.053Y-139.28
X118.65Y-172.3
X123.44Y-172.3
X218.663Y-172.3
X237.74Y-172.3
X285.365Y-139.28
X290.128Y-134.2
X292.509Y-82.13
X309.178Y-139.28
X313.94Y-134.2
X316.322Y-82.13
X318.544Y-105.784
X318.544Y-129.596
T5
X47.24Y-65.302
X47.24Y-89.115
X47.24Y-154.52
X49.622Y-127.215
X49.622Y-146.265
X49.622Y-165.315
X52.003Y-108.165
X52.003Y-165.315
X54.384Y-127.215
X59.147Y-146.265
X66.29Y-89.115
X71.053Y-65.302
X71.053Y-146.265
X71.053Y-154.52
X73.434Y-165.315
X75.815Y-108.165
X75.815Y-165.315
X80.578Y-127.215
X85.34Y-89.115
X90.103Y-65.302
X90.103Y-146.265
X94.865Y-108.165
X97.247Y-165.315
X99.628Y-127.215
X99.628Y-165.315
X104.39Y-89.115
X109.153Y-65.302
X109.153Y-146.265
X113.915Y-108.165
X118.65Y-157.06
X118.678Y-127.215
X123.44Y-89.115
X123.44Y-157.06
X128.203Y-65.302
X128.203Y-146.265
X132.965Y-108.165
X137.728Y-127.215
X142.49Y-89.115
X147.253Y-146.265
X152.015Y-65.302
X152.015Y-108.165
X156.778Y-127.215
X161.54Y-89.115
X166.303Y-146.265
X168.684Y-165.315
X171.065Y-65.302
X171.065Y-108.165
X175.828Y-127.215
X180.59Y-89.115
X180.59Y-165.315
X185.353Y-146.265
X190.115Y-65.302
X190.115Y-108.165
X194.878Y-127.215
X199.64Y-89.115
X204.403Y-146.265
X209.165Y-65.302
X209.165Y-108.165
X213.928Y-127.215
X218.663Y-157.06
X218.69Y-89.115
X223.453Y-146.265
X228.215Y-108.165
X232.978Y-65.302
X232.978Y-127.215
X237.74Y-89.115
X237.74Y-157.06
X240.122Y-165.315
X242.503Y-146.265
X247.265Y-108.165
X252.028Y-65.302
X252.028Y-127.215
X256.79Y-89.115
X261.553Y-146.265
X261.553Y-165.315
X263.934Y-165.315
X266.315Y-108.165
X271.078Y-65.302
X271.078Y-127.215
X275.84Y-89.115
X285.365Y-108.165
X285.365Y-154.52
X285.365Y-165.315
X287.747Y-146.265
X287.747Y-165.315
X290.128Y-65.302
X290.128Y-118.96
X290.128Y-127.215
X292.509Y-97.37
X294.89Y-89.115
X297.272Y-146.265
X302.034Y-127.215
X303.304Y-105.784
X303.304Y-129.596
X304.415Y-89.115
X309.178Y-108.165
X309.178Y-154.52
X309.178Y-165.315
X311.559Y-117.69
X311.559Y-165.315
X313.94Y-65.302
X313.94Y-89.115
X313.94Y-118.96
X313.94Y-146.265
X316.322Y-97.37
X337.753Y-65.302
X337.753Y-89.115
X337.753Y-108.165
X337.753Y-165.315
X356.803Y-65.302
X356.803Y-89.115
X356.803Y-108.165
X356.803Y-146.265
X356.803Y-165.315
X375.853Y-65.302
X375.853Y-89.115
X375.853Y-108.165
X375.853Y-165.315
T0
M30
