%TF.GenerationSoftware,KiCad,Pcbnew,(6.0.6)*%
%TF.CreationDate,2023-01-04T14:02:57+11:00*%
%TF.ProjectId,slime88,736c696d-6538-4382-9e6b-696361645f70,rev?*%
%TF.SameCoordinates,Original*%
%TF.FileFunction,Soldermask,Bot*%
%TF.FilePolarity,Negative*%
%FSLAX46Y46*%
G04 Gerber Fmt 4.6, Leading zero omitted, Abs format (unit mm)*
G04 Created by KiCad (PCBNEW (6.0.6)) date 2023-01-04 14:02:57*
%MOMM*%
%LPD*%
G01*
G04 APERTURE LIST*
G04 Aperture macros list*
%AMRoundRect*
0 Rectangle with rounded corners*
0 $1 Rounding radius*
0 $2 $3 $4 $5 $6 $7 $8 $9 X,Y pos of 4 corners*
0 Add a 4 corners polygon primitive as box body*
4,1,4,$2,$3,$4,$5,$6,$7,$8,$9,$2,$3,0*
0 Add four circle primitives for the rounded corners*
1,1,$1+$1,$2,$3*
1,1,$1+$1,$4,$5*
1,1,$1+$1,$6,$7*
1,1,$1+$1,$8,$9*
0 Add four rect primitives between the rounded corners*
20,1,$1+$1,$2,$3,$4,$5,0*
20,1,$1+$1,$4,$5,$6,$7,0*
20,1,$1+$1,$6,$7,$8,$9,0*
20,1,$1+$1,$8,$9,$2,$3,0*%
%AMRotRect*
0 Rectangle, with rotation*
0 The origin of the aperture is its center*
0 $1 length*
0 $2 width*
0 $3 Rotation angle, in degrees counterclockwise*
0 Add horizontal line*
21,1,$1,$2,0,0,$3*%
G04 Aperture macros list end*
%ADD10C,3.048000*%
%ADD11C,3.987800*%
%ADD12C,0.500000*%
%ADD13C,0.650000*%
%ADD14O,1.000000X2.100000*%
%ADD15O,1.000000X1.600000*%
%ADD16R,1.700000X1.700000*%
%ADD17O,1.700000X1.700000*%
%ADD18RotRect,1.400000X1.200000X45.000000*%
%ADD19R,1.200000X0.900000*%
%ADD20C,1.750000*%
%ADD21RoundRect,0.250000X1.025000X1.000000X-1.025000X1.000000X-1.025000X-1.000000X1.025000X-1.000000X0*%
%ADD22C,3.300000*%
%ADD23RoundRect,0.140000X0.140000X0.170000X-0.140000X0.170000X-0.140000X-0.170000X0.140000X-0.170000X0*%
%ADD24RoundRect,0.140000X0.170000X-0.140000X0.170000X0.140000X-0.170000X0.140000X-0.170000X-0.140000X0*%
%ADD25RoundRect,0.200000X-0.275000X0.200000X-0.275000X-0.200000X0.275000X-0.200000X0.275000X0.200000X0*%
%ADD26RoundRect,0.135000X0.135000X0.185000X-0.135000X0.185000X-0.135000X-0.185000X0.135000X-0.185000X0*%
%ADD27RoundRect,0.250000X-0.625000X0.375000X-0.625000X-0.375000X0.625000X-0.375000X0.625000X0.375000X0*%
%ADD28RoundRect,0.250000X-1.025000X-1.000000X1.025000X-1.000000X1.025000X1.000000X-1.025000X1.000000X0*%
%ADD29RoundRect,0.204695X0.818780X1.045305X-0.818780X1.045305X-0.818780X-1.045305X0.818780X-1.045305X0*%
%ADD30RoundRect,0.140000X-0.140000X-0.170000X0.140000X-0.170000X0.140000X0.170000X-0.140000X0.170000X0*%
%ADD31RoundRect,0.150000X0.650000X0.150000X-0.650000X0.150000X-0.650000X-0.150000X0.650000X-0.150000X0*%
%ADD32R,0.900000X1.200000*%
%ADD33RoundRect,0.150000X0.475000X0.150000X-0.475000X0.150000X-0.475000X-0.150000X0.475000X-0.150000X0*%
%ADD34RoundRect,0.050000X0.387500X0.050000X-0.387500X0.050000X-0.387500X-0.050000X0.387500X-0.050000X0*%
%ADD35RoundRect,0.050000X0.050000X0.387500X-0.050000X0.387500X-0.050000X-0.387500X0.050000X-0.387500X0*%
%ADD36RoundRect,0.144000X1.456000X1.456000X-1.456000X1.456000X-1.456000X-1.456000X1.456000X-1.456000X0*%
%ADD37RoundRect,0.135000X-0.185000X0.135000X-0.185000X-0.135000X0.185000X-0.135000X0.185000X0.135000X0*%
%ADD38RoundRect,0.140000X0.021213X-0.219203X0.219203X-0.021213X-0.021213X0.219203X-0.219203X0.021213X0*%
%ADD39RoundRect,0.140000X0.219203X0.021213X0.021213X0.219203X-0.219203X-0.021213X-0.021213X-0.219203X0*%
%ADD40RoundRect,0.135000X0.035355X-0.226274X0.226274X-0.035355X-0.035355X0.226274X-0.226274X0.035355X0*%
%ADD41RoundRect,0.135000X-0.135000X-0.185000X0.135000X-0.185000X0.135000X0.185000X-0.135000X0.185000X0*%
%ADD42RoundRect,0.180000X0.720000X1.070000X-0.720000X1.070000X-0.720000X-1.070000X0.720000X-1.070000X0*%
%ADD43RoundRect,0.150000X0.150000X-0.587500X0.150000X0.587500X-0.150000X0.587500X-0.150000X-0.587500X0*%
%ADD44RoundRect,0.150000X-0.150000X-0.625000X0.150000X-0.625000X0.150000X0.625000X-0.150000X0.625000X0*%
%ADD45RoundRect,0.250000X-0.350000X-0.650000X0.350000X-0.650000X0.350000X0.650000X-0.350000X0.650000X0*%
G04 APERTURE END LIST*
D10*
%TO.C,S5*%
X285365312Y-139280000D03*
X309177812Y-139280000D03*
D11*
X309177812Y-154520000D03*
X285365312Y-154520000D03*
%TD*%
%TO.C,S7*%
X237740312Y-157060000D03*
D10*
X123440312Y-172300000D03*
D11*
X123440312Y-157060000D03*
D10*
X237740312Y-172300000D03*
%TD*%
D11*
%TO.C,S2*%
X303304062Y-129596250D03*
X303304062Y-105783750D03*
D10*
X318544062Y-105783750D03*
X318544062Y-129596250D03*
%TD*%
%TO.C,S1*%
X292509062Y-82130000D03*
D11*
X316321562Y-97370000D03*
X292509062Y-97370000D03*
D10*
X316321562Y-82130000D03*
%TD*%
%TO.C,S6*%
X118650312Y-172300000D03*
X218662812Y-172300000D03*
D11*
X218662812Y-157060000D03*
X118650312Y-157060000D03*
%TD*%
D12*
%TO.C,J1*%
X324196562Y-58862500D03*
X329736562Y-58862500D03*
X324946562Y-58862500D03*
X330486562Y-58862500D03*
X327496562Y-58862500D03*
X321196562Y-58862500D03*
D13*
X328736562Y-54962500D03*
D12*
X322606562Y-58862500D03*
D13*
X322956562Y-54962500D03*
D12*
X328996562Y-58862500D03*
X328246562Y-58862500D03*
X326746562Y-58862500D03*
X321896562Y-58862500D03*
D14*
X321526562Y-55492500D03*
D15*
X321526562Y-51312500D03*
D14*
X330166562Y-55492500D03*
D15*
X330166562Y-51312500D03*
%TD*%
D10*
%TO.C,S3*%
X313940312Y-134200000D03*
D11*
X313940312Y-118960000D03*
X290127812Y-118960000D03*
D10*
X290127812Y-134200000D03*
%TD*%
D16*
%TO.C,J2*%
X328530000Y-142070000D03*
D17*
X331070000Y-142070000D03*
X333610000Y-142070000D03*
X336150000Y-142070000D03*
X338690000Y-142070000D03*
%TD*%
D18*
%TO.C,Y1*%
X338321142Y-136556777D03*
X339876777Y-135001142D03*
X341078858Y-136203223D03*
X339523223Y-137758858D03*
%TD*%
D19*
%TO.C,D39*%
X117090312Y-110608750D03*
X117090312Y-107308750D03*
%TD*%
D11*
%TO.C,SW95*%
X240121562Y-165315000D03*
D20*
X235041562Y-165315000D03*
X245201562Y-165315000D03*
D21*
X232761562Y-162775000D03*
D22*
X236311562Y-162775000D03*
D21*
X246211562Y-160235000D03*
D22*
X242661562Y-160235000D03*
%TD*%
D20*
%TO.C,SW69*%
X296954062Y-127215000D03*
D11*
X302034062Y-127215000D03*
D20*
X307114062Y-127215000D03*
D21*
X294674062Y-124675000D03*
D22*
X298224062Y-124675000D03*
X304574062Y-122135000D03*
D21*
X308124062Y-122135000D03*
%TD*%
D20*
%TO.C,SW102*%
X332672812Y-165315000D03*
D11*
X337752812Y-165315000D03*
D20*
X342832812Y-165315000D03*
D22*
X333942812Y-162775000D03*
D21*
X330392812Y-162775000D03*
D22*
X340292812Y-160235000D03*
D21*
X343842812Y-160235000D03*
%TD*%
D20*
%TO.C,SW86*%
X361882812Y-146265000D03*
X351722812Y-146265000D03*
D11*
X356802812Y-146265000D03*
D22*
X352992812Y-143725000D03*
D21*
X349442812Y-143725000D03*
D22*
X359342812Y-141185000D03*
D21*
X362892812Y-141185000D03*
%TD*%
D19*
%TO.C,D15*%
X340927812Y-67746250D03*
X340927812Y-64446250D03*
%TD*%
D23*
%TO.C,C9*%
X336140000Y-134620000D03*
X335180000Y-134620000D03*
%TD*%
D11*
%TO.C,SW29*%
X256790312Y-89115000D03*
D20*
X251710312Y-89115000D03*
X261870312Y-89115000D03*
D22*
X252980312Y-86575000D03*
D21*
X249430312Y-86575000D03*
X262880312Y-84035000D03*
D22*
X259330312Y-84035000D03*
%TD*%
D19*
%TO.C,D9*%
X212340312Y-67746250D03*
X212340312Y-64446250D03*
%TD*%
D20*
%TO.C,SW42*%
X146935312Y-108165000D03*
D11*
X152015312Y-108165000D03*
D20*
X157095312Y-108165000D03*
D22*
X148205312Y-105625000D03*
D21*
X144655312Y-105625000D03*
D22*
X154555312Y-103085000D03*
D21*
X158105312Y-103085000D03*
%TD*%
D11*
%TO.C,SW3*%
X90102812Y-65302500D03*
D20*
X95182812Y-65302500D03*
X85022812Y-65302500D03*
D21*
X82742812Y-62762500D03*
D22*
X86292812Y-62762500D03*
X92642812Y-60222500D03*
D21*
X96192812Y-60222500D03*
%TD*%
D24*
%TO.C,C3*%
X340040312Y-119350000D03*
X340040312Y-118390000D03*
%TD*%
D20*
%TO.C,SW11*%
X257107812Y-65302500D03*
D11*
X252027812Y-65302500D03*
D20*
X246947812Y-65302500D03*
D21*
X244667812Y-62762500D03*
D22*
X248217812Y-62762500D03*
D21*
X258117812Y-60222500D03*
D22*
X254567812Y-60222500D03*
%TD*%
D20*
%TO.C,SW28*%
X232660312Y-89115000D03*
X242820312Y-89115000D03*
D11*
X237740312Y-89115000D03*
D21*
X230380312Y-86575000D03*
D22*
X233930312Y-86575000D03*
D21*
X243830312Y-84035000D03*
D22*
X240280312Y-84035000D03*
%TD*%
D23*
%TO.C,C2*%
X336140000Y-133560000D03*
X335180000Y-133560000D03*
%TD*%
D11*
%TO.C,SW35*%
X356802812Y-89115000D03*
D20*
X351722812Y-89115000D03*
X361882812Y-89115000D03*
D21*
X349442812Y-86575000D03*
D22*
X352992812Y-86575000D03*
D21*
X362892812Y-84035000D03*
D22*
X359342812Y-84035000D03*
%TD*%
D23*
%TO.C,C11*%
X332800312Y-123382500D03*
X331840312Y-123382500D03*
%TD*%
D20*
%TO.C,SW36*%
X370772812Y-89115000D03*
X380932812Y-89115000D03*
D11*
X375852812Y-89115000D03*
D21*
X368492812Y-86575000D03*
D22*
X372042812Y-86575000D03*
D21*
X381942812Y-84035000D03*
D22*
X378392812Y-84035000D03*
%TD*%
D20*
%TO.C,SW12*%
X265997812Y-65302500D03*
D11*
X271077812Y-65302500D03*
D20*
X276157812Y-65302500D03*
D21*
X263717812Y-62762500D03*
D22*
X267267812Y-62762500D03*
D21*
X277167812Y-60222500D03*
D22*
X273617812Y-60222500D03*
%TD*%
D19*
%TO.C,D45*%
X231390312Y-110608750D03*
X231390312Y-107308750D03*
%TD*%
D20*
%TO.C,SW60*%
X142807812Y-127215000D03*
X132647812Y-127215000D03*
D11*
X137727812Y-127215000D03*
D22*
X133917812Y-124675000D03*
D21*
X130367812Y-124675000D03*
D22*
X140267812Y-122135000D03*
D21*
X143817812Y-122135000D03*
%TD*%
D19*
%TO.C,D42*%
X174240312Y-110608750D03*
X174240312Y-107308750D03*
%TD*%
D11*
%TO.C,SW73*%
X90102812Y-146265000D03*
D20*
X95182812Y-146265000D03*
X85022812Y-146265000D03*
D21*
X82742812Y-143725000D03*
D22*
X86292812Y-143725000D03*
D21*
X96192812Y-141185000D03*
D22*
X92642812Y-141185000D03*
%TD*%
D19*
%TO.C,D19*%
X69465312Y-91558750D03*
X69465312Y-88258750D03*
%TD*%
D20*
%TO.C,SW9*%
X214245312Y-65302500D03*
D11*
X209165312Y-65302500D03*
D20*
X204085312Y-65302500D03*
D21*
X201805312Y-62762500D03*
D22*
X205355312Y-62762500D03*
X211705312Y-60222500D03*
D21*
X215255312Y-60222500D03*
%TD*%
D24*
%TO.C,C1*%
X335040312Y-122062500D03*
X335040312Y-121102500D03*
%TD*%
D25*
%TO.C,R3*%
X335730312Y-117937500D03*
X335730312Y-119587500D03*
%TD*%
D20*
%TO.C,SW48*%
X261235312Y-108165000D03*
D11*
X266315312Y-108165000D03*
D20*
X271395312Y-108165000D03*
D22*
X262505312Y-105625000D03*
D21*
X258955312Y-105625000D03*
X272405312Y-103085000D03*
D22*
X268855312Y-103085000D03*
%TD*%
D20*
%TO.C,SW40*%
X108835312Y-108165000D03*
D11*
X113915312Y-108165000D03*
D20*
X118995312Y-108165000D03*
D21*
X106555312Y-105625000D03*
D22*
X110105312Y-105625000D03*
X116455312Y-103085000D03*
D21*
X120005312Y-103085000D03*
%TD*%
D19*
%TO.C,D18*%
X50415312Y-91558750D03*
X50415312Y-88258750D03*
%TD*%
D26*
%TO.C,R7*%
X323147812Y-57452500D03*
X322127812Y-57452500D03*
%TD*%
D20*
%TO.C,SW17*%
X370772812Y-65302500D03*
D11*
X375852812Y-65302500D03*
D20*
X380932812Y-65302500D03*
D21*
X368492812Y-62762500D03*
D22*
X372042812Y-62762500D03*
X378392812Y-60222500D03*
D21*
X381942812Y-60222500D03*
%TD*%
D19*
%TO.C,D44*%
X212340312Y-110608750D03*
X212340312Y-107308750D03*
%TD*%
D20*
%TO.C,SW7*%
X176145312Y-65302500D03*
X165985312Y-65302500D03*
D11*
X171065312Y-65302500D03*
D21*
X163705312Y-62762500D03*
D22*
X167255312Y-62762500D03*
D21*
X177155312Y-60222500D03*
D22*
X173605312Y-60222500D03*
%TD*%
D27*
%TO.C,F1*%
X321630312Y-62862500D03*
X321630312Y-65662500D03*
%TD*%
D20*
%TO.C,SW26*%
X194560312Y-89115000D03*
X204720312Y-89115000D03*
D11*
X199640312Y-89115000D03*
D21*
X192280312Y-86575000D03*
D22*
X195830312Y-86575000D03*
X202180312Y-84035000D03*
D21*
X205730312Y-84035000D03*
%TD*%
D11*
%TO.C,SW30*%
X275840312Y-89115000D03*
D20*
X270760312Y-89115000D03*
X280920312Y-89115000D03*
D21*
X268480312Y-86575000D03*
D22*
X272030312Y-86575000D03*
D21*
X281930312Y-84035000D03*
D22*
X278380312Y-84035000D03*
%TD*%
D19*
%TO.C,D52*%
X379027812Y-110608750D03*
X379027812Y-107308750D03*
%TD*%
D20*
%TO.C,SW97*%
X269014062Y-165315000D03*
D11*
X263934062Y-165315000D03*
D20*
X258854062Y-165315000D03*
D22*
X267744062Y-167855000D03*
D28*
X271294062Y-167855000D03*
X257844062Y-170395000D03*
D22*
X261394062Y-170395000D03*
%TD*%
D11*
%TO.C,SW14*%
X313940312Y-65302500D03*
D20*
X308860312Y-65302500D03*
X319020312Y-65302500D03*
D21*
X306580312Y-62762500D03*
D22*
X310130312Y-62762500D03*
X316480312Y-60222500D03*
D29*
X319773062Y-60222500D03*
%TD*%
D19*
%TO.C,D50*%
X340927812Y-110608750D03*
X340927812Y-107308750D03*
%TD*%
%TO.C,D35*%
X379027812Y-91558750D03*
X379027812Y-88258750D03*
%TD*%
D30*
%TO.C,C8*%
X343120000Y-128460000D03*
X344080000Y-128460000D03*
%TD*%
D11*
%TO.C,SW65*%
X232977812Y-127215000D03*
D20*
X227897812Y-127215000D03*
X238057812Y-127215000D03*
D21*
X225617812Y-124675000D03*
D22*
X229167812Y-124675000D03*
D21*
X239067812Y-122135000D03*
D22*
X235517812Y-122135000D03*
%TD*%
D11*
%TO.C,SW99*%
X287746562Y-165315000D03*
D20*
X292826562Y-165315000D03*
X282666562Y-165315000D03*
D28*
X295106562Y-167855000D03*
D22*
X291556562Y-167855000D03*
D28*
X281656562Y-170395000D03*
D22*
X285206562Y-170395000D03*
%TD*%
D11*
%TO.C,SW24*%
X161540312Y-89115000D03*
D20*
X156460312Y-89115000D03*
X166620312Y-89115000D03*
D21*
X154180312Y-86575000D03*
D22*
X157730312Y-86575000D03*
X164080312Y-84035000D03*
D21*
X167630312Y-84035000D03*
%TD*%
D19*
%TO.C,D8*%
X193290312Y-67746250D03*
X193290312Y-64446250D03*
%TD*%
D31*
%TO.C,U4*%
X352720000Y-116715000D03*
X352720000Y-117985000D03*
X352720000Y-119255000D03*
X352720000Y-120525000D03*
X345520000Y-120525000D03*
X345520000Y-119255000D03*
X345520000Y-117985000D03*
X345520000Y-116715000D03*
%TD*%
D11*
%TO.C,SW87*%
X49621562Y-165315000D03*
D20*
X44541562Y-165315000D03*
X54701562Y-165315000D03*
D22*
X45811562Y-162775000D03*
D21*
X42261562Y-162775000D03*
D22*
X52161562Y-160235000D03*
D21*
X55711562Y-160235000D03*
%TD*%
D19*
%TO.C,D4*%
X112327812Y-67746250D03*
X112327812Y-64446250D03*
%TD*%
%TO.C,D49*%
X320290312Y-119340000D03*
X320290312Y-116040000D03*
%TD*%
%TO.C,D68*%
X93277812Y-148708750D03*
X93277812Y-145408750D03*
%TD*%
D20*
%TO.C,SW92*%
X104707812Y-165315000D03*
X94547812Y-165315000D03*
D11*
X99627812Y-165315000D03*
D22*
X103437812Y-167855000D03*
D28*
X106987812Y-167855000D03*
D22*
X97087812Y-170395000D03*
D28*
X93537812Y-170395000D03*
%TD*%
D20*
%TO.C,SW76*%
X142172812Y-146265000D03*
X152332812Y-146265000D03*
D11*
X147252812Y-146265000D03*
D22*
X143442812Y-143725000D03*
D21*
X139892812Y-143725000D03*
X153342812Y-141185000D03*
D22*
X149792812Y-141185000D03*
%TD*%
D32*
%TO.C,D53*%
X62384062Y-124040000D03*
X59084062Y-124040000D03*
%TD*%
D20*
%TO.C,SW53*%
X351722812Y-108165000D03*
X361882812Y-108165000D03*
D11*
X356802812Y-108165000D03*
D21*
X349442812Y-105625000D03*
D22*
X352992812Y-105625000D03*
X359342812Y-103085000D03*
D21*
X362892812Y-103085000D03*
%TD*%
D11*
%TO.C,SW61*%
X156777812Y-127215000D03*
D20*
X161857812Y-127215000D03*
X151697812Y-127215000D03*
D21*
X149417812Y-124675000D03*
D22*
X152967812Y-124675000D03*
D21*
X162867812Y-122135000D03*
D22*
X159317812Y-122135000D03*
%TD*%
D19*
%TO.C,D89*%
X340927812Y-167758750D03*
X340927812Y-164458750D03*
%TD*%
D20*
%TO.C,SW51*%
X306479062Y-117690000D03*
X316639062Y-117690000D03*
D11*
X311559062Y-117690000D03*
D21*
X304199062Y-115150000D03*
D22*
X307749062Y-115150000D03*
X314099062Y-112610000D03*
D21*
X317649062Y-112610000D03*
%TD*%
D11*
%TO.C,SW37*%
X52002812Y-108165000D03*
D20*
X46922812Y-108165000D03*
X57082812Y-108165000D03*
D21*
X44642812Y-105625000D03*
D22*
X48192812Y-105625000D03*
D21*
X58092812Y-103085000D03*
D22*
X54542812Y-103085000D03*
%TD*%
D20*
%TO.C,SW62*%
X180907812Y-127215000D03*
D11*
X175827812Y-127215000D03*
D20*
X170747812Y-127215000D03*
D21*
X168467812Y-124675000D03*
D22*
X172017812Y-124675000D03*
D21*
X181917812Y-122135000D03*
D22*
X178367812Y-122135000D03*
%TD*%
D19*
%TO.C,D72*%
X169477812Y-148708750D03*
X169477812Y-145408750D03*
%TD*%
%TO.C,D7*%
X174240312Y-67746250D03*
X174240312Y-64446250D03*
%TD*%
%TO.C,D43*%
X193290312Y-110608750D03*
X193290312Y-107308750D03*
%TD*%
D33*
%TO.C,U3*%
X326972812Y-61212500D03*
X326972812Y-62162500D03*
X327047812Y-63112500D03*
X324622812Y-63112500D03*
X324622812Y-62162500D03*
X324622812Y-61212500D03*
%TD*%
D20*
%TO.C,SW72*%
X65972812Y-146265000D03*
X76132812Y-146265000D03*
D11*
X71052812Y-146265000D03*
D28*
X78412812Y-148805000D03*
D22*
X74862812Y-148805000D03*
D28*
X64962812Y-151345000D03*
D22*
X68512812Y-151345000D03*
%TD*%
D23*
%TO.C,C14*%
X321570312Y-73712500D03*
X320610312Y-73712500D03*
%TD*%
D19*
%TO.C,D69*%
X112327812Y-148708750D03*
X112327812Y-145408750D03*
%TD*%
D20*
%TO.C,SW34*%
X342832812Y-89115000D03*
D11*
X337752812Y-89115000D03*
D20*
X332672812Y-89115000D03*
D21*
X330392812Y-86575000D03*
D22*
X333942812Y-86575000D03*
X340292812Y-84035000D03*
D21*
X343842812Y-84035000D03*
%TD*%
D30*
%TO.C,C13*%
X320590312Y-68532500D03*
X321550312Y-68532500D03*
%TD*%
D20*
%TO.C,SW31*%
X289810312Y-89115000D03*
D11*
X294890312Y-89115000D03*
D20*
X299970312Y-89115000D03*
D28*
X302250312Y-91655000D03*
D22*
X298700312Y-91655000D03*
D28*
X288800312Y-94195000D03*
D22*
X292350312Y-94195000D03*
%TD*%
D26*
%TO.C,R1*%
X329560000Y-139650000D03*
X328540000Y-139650000D03*
%TD*%
D24*
%TO.C,C5*%
X333992224Y-122065858D03*
X333992224Y-121105858D03*
%TD*%
D20*
%TO.C,SW43*%
X176145312Y-108165000D03*
X165985312Y-108165000D03*
D11*
X171065312Y-108165000D03*
D22*
X167255312Y-105625000D03*
D21*
X163705312Y-105625000D03*
X177155312Y-103085000D03*
D22*
X173605312Y-103085000D03*
%TD*%
D19*
%TO.C,D91*%
X379027812Y-167758750D03*
X379027812Y-164458750D03*
%TD*%
D20*
%TO.C,SW5*%
X133282812Y-65302500D03*
D11*
X128202812Y-65302500D03*
D20*
X123122812Y-65302500D03*
D22*
X124392812Y-62762500D03*
D21*
X120842812Y-62762500D03*
X134292812Y-60222500D03*
D22*
X130742812Y-60222500D03*
%TD*%
D19*
%TO.C,D16*%
X359977812Y-67746250D03*
X359977812Y-64446250D03*
%TD*%
%TO.C,D55*%
X102802812Y-129658750D03*
X102802812Y-126358750D03*
%TD*%
D11*
%TO.C,SW96*%
X261552812Y-165315000D03*
D20*
X256472812Y-165315000D03*
X266632812Y-165315000D03*
D22*
X257742812Y-162775000D03*
D21*
X254192812Y-162775000D03*
X267642812Y-160235000D03*
D22*
X264092812Y-160235000D03*
%TD*%
D19*
%TO.C,D62*%
X236152812Y-129658750D03*
X236152812Y-126358750D03*
%TD*%
%TO.C,D87*%
X295684062Y-160490000D03*
X295684062Y-163790000D03*
%TD*%
%TO.C,D79*%
X303621562Y-149377500D03*
X303621562Y-152677500D03*
%TD*%
%TO.C,D47*%
X269490312Y-110608750D03*
X269490312Y-107308750D03*
%TD*%
D20*
%TO.C,SW74*%
X104072812Y-146265000D03*
D11*
X109152812Y-146265000D03*
D20*
X114232812Y-146265000D03*
D21*
X101792812Y-143725000D03*
D22*
X105342812Y-143725000D03*
D21*
X115242812Y-141185000D03*
D22*
X111692812Y-141185000D03*
%TD*%
D19*
%TO.C,D41*%
X155190312Y-110608750D03*
X155190312Y-107308750D03*
%TD*%
%TO.C,D58*%
X159952812Y-129658750D03*
X159952812Y-126358750D03*
%TD*%
D10*
%TO.C,S4*%
X47240312Y-139280000D03*
D11*
X47240312Y-154520000D03*
X71052812Y-154520000D03*
D10*
X71052812Y-139280000D03*
%TD*%
D11*
%TO.C,SW82*%
X261552812Y-146265000D03*
D20*
X266632812Y-146265000D03*
X256472812Y-146265000D03*
D22*
X257742812Y-143725000D03*
D21*
X254192812Y-143725000D03*
X267642812Y-141185000D03*
D22*
X264092812Y-141185000D03*
%TD*%
D19*
%TO.C,D29*%
X259965312Y-91558750D03*
X259965312Y-88258750D03*
%TD*%
D20*
%TO.C,SW98*%
X290445312Y-165315000D03*
D11*
X285365312Y-165315000D03*
D20*
X280285312Y-165315000D03*
D22*
X281555312Y-162775000D03*
D21*
X278005312Y-162775000D03*
X291455312Y-160235000D03*
D22*
X287905312Y-160235000D03*
%TD*%
D11*
%TO.C,SW49*%
X285365312Y-108165000D03*
D20*
X290445312Y-108165000D03*
X280285312Y-108165000D03*
D21*
X278005312Y-105625000D03*
D22*
X281555312Y-105625000D03*
D21*
X291455312Y-103085000D03*
D22*
X287905312Y-103085000D03*
%TD*%
D19*
%TO.C,D82*%
X83752812Y-160490000D03*
X83752812Y-163790000D03*
%TD*%
D20*
%TO.C,SW89*%
X78514062Y-165315000D03*
D11*
X73434062Y-165315000D03*
D20*
X68354062Y-165315000D03*
D21*
X66074062Y-162775000D03*
D22*
X69624062Y-162775000D03*
X75974062Y-160235000D03*
D21*
X79524062Y-160235000D03*
%TD*%
D19*
%TO.C,D20*%
X88515312Y-91558750D03*
X88515312Y-88258750D03*
%TD*%
%TO.C,D88*%
X319496562Y-160490000D03*
X319496562Y-163790000D03*
%TD*%
D23*
%TO.C,C6*%
X332400312Y-128482500D03*
X331440312Y-128482500D03*
%TD*%
D19*
%TO.C,D25*%
X183765312Y-91558750D03*
X183765312Y-88258750D03*
%TD*%
D20*
%TO.C,SW58*%
X104707812Y-127215000D03*
X94547812Y-127215000D03*
D11*
X99627812Y-127215000D03*
D21*
X92267812Y-124675000D03*
D22*
X95817812Y-124675000D03*
X102167812Y-122135000D03*
D21*
X105717812Y-122135000D03*
%TD*%
D19*
%TO.C,D76*%
X245677812Y-148708750D03*
X245677812Y-145408750D03*
%TD*%
D11*
%TO.C,SW75*%
X128202812Y-146265000D03*
D20*
X133282812Y-146265000D03*
X123122812Y-146265000D03*
D21*
X120842812Y-143725000D03*
D22*
X124392812Y-143725000D03*
X130742812Y-141185000D03*
D21*
X134292812Y-141185000D03*
%TD*%
D20*
%TO.C,SW2*%
X76132812Y-65302500D03*
X65972812Y-65302500D03*
D11*
X71052812Y-65302500D03*
D22*
X67242812Y-62762500D03*
D21*
X63692812Y-62762500D03*
D22*
X73592812Y-60222500D03*
D21*
X77142812Y-60222500D03*
%TD*%
D20*
%TO.C,SW32*%
X299335312Y-89115000D03*
X309495312Y-89115000D03*
D11*
X304415312Y-89115000D03*
D22*
X300605312Y-86575000D03*
D21*
X297055312Y-86575000D03*
X310505312Y-84035000D03*
D22*
X306955312Y-84035000D03*
%TD*%
D20*
%TO.C,SW80*%
X228532812Y-146265000D03*
X218372812Y-146265000D03*
D11*
X223452812Y-146265000D03*
D21*
X216092812Y-143725000D03*
D22*
X219642812Y-143725000D03*
X225992812Y-141185000D03*
D21*
X229542812Y-141185000D03*
%TD*%
D19*
%TO.C,D2*%
X74227812Y-67746250D03*
X74227812Y-64446250D03*
%TD*%
%TO.C,D40*%
X136140312Y-110608750D03*
X136140312Y-107308750D03*
%TD*%
D11*
%TO.C,SW56*%
X54384062Y-127215000D03*
D20*
X49304062Y-127215000D03*
X59464062Y-127215000D03*
D22*
X58194062Y-129755000D03*
D28*
X61744062Y-129755000D03*
X48294062Y-132295000D03*
D22*
X51844062Y-132295000D03*
%TD*%
D25*
%TO.C,R2*%
X337316562Y-117937500D03*
X337316562Y-119587500D03*
%TD*%
D19*
%TO.C,D26*%
X202815312Y-91558750D03*
X202815312Y-88258750D03*
%TD*%
%TO.C,D6*%
X155190312Y-67746250D03*
X155190312Y-64446250D03*
%TD*%
D20*
%TO.C,SW66*%
X246947812Y-127215000D03*
X257107812Y-127215000D03*
D11*
X252027812Y-127215000D03*
D21*
X244667812Y-124675000D03*
D22*
X248217812Y-124675000D03*
D21*
X258117812Y-122135000D03*
D22*
X254567812Y-122135000D03*
%TD*%
D24*
%TO.C,C7*%
X338990312Y-119350000D03*
X338990312Y-118390000D03*
%TD*%
D34*
%TO.C,U2*%
X341190312Y-124615000D03*
X341190312Y-125015000D03*
X341190312Y-125415000D03*
X341190312Y-125815000D03*
X341190312Y-126215000D03*
X341190312Y-126615000D03*
X341190312Y-127015000D03*
X341190312Y-127415000D03*
X341190312Y-127815000D03*
X341190312Y-128215000D03*
X341190312Y-128615000D03*
X341190312Y-129015000D03*
X341190312Y-129415000D03*
X341190312Y-129815000D03*
D35*
X340352812Y-130652500D03*
X339952812Y-130652500D03*
X339552812Y-130652500D03*
X339152812Y-130652500D03*
X338752812Y-130652500D03*
X338352812Y-130652500D03*
X337952812Y-130652500D03*
X337552812Y-130652500D03*
X337152812Y-130652500D03*
X336752812Y-130652500D03*
X336352812Y-130652500D03*
X335952812Y-130652500D03*
X335552812Y-130652500D03*
X335152812Y-130652500D03*
D34*
X334315312Y-129815000D03*
X334315312Y-129415000D03*
X334315312Y-129015000D03*
X334315312Y-128615000D03*
X334315312Y-128215000D03*
X334315312Y-127815000D03*
X334315312Y-127415000D03*
X334315312Y-127015000D03*
X334315312Y-126615000D03*
X334315312Y-126215000D03*
X334315312Y-125815000D03*
X334315312Y-125415000D03*
X334315312Y-125015000D03*
X334315312Y-124615000D03*
D35*
X335152812Y-123777500D03*
X335552812Y-123777500D03*
X335952812Y-123777500D03*
X336352812Y-123777500D03*
X336752812Y-123777500D03*
X337152812Y-123777500D03*
X337552812Y-123777500D03*
X337952812Y-123777500D03*
X338352812Y-123777500D03*
X338752812Y-123777500D03*
X339152812Y-123777500D03*
X339552812Y-123777500D03*
X339952812Y-123777500D03*
X340352812Y-123777500D03*
D36*
X337752812Y-127215000D03*
%TD*%
D20*
%TO.C,SW22*%
X128520312Y-89115000D03*
X118360312Y-89115000D03*
D11*
X123440312Y-89115000D03*
D22*
X119630312Y-86575000D03*
D21*
X116080312Y-86575000D03*
D22*
X125980312Y-84035000D03*
D21*
X129530312Y-84035000D03*
%TD*%
D11*
%TO.C,SW4*%
X109152812Y-65302500D03*
D20*
X114232812Y-65302500D03*
X104072812Y-65302500D03*
D21*
X101792812Y-62762500D03*
D22*
X105342812Y-62762500D03*
X111692812Y-60222500D03*
D21*
X115242812Y-60222500D03*
%TD*%
D20*
%TO.C,SW84*%
X292191562Y-146265000D03*
X302351562Y-146265000D03*
D11*
X297271562Y-146265000D03*
D22*
X293461562Y-143725000D03*
D21*
X289911562Y-143725000D03*
D22*
X299811562Y-141185000D03*
D21*
X303361562Y-141185000D03*
%TD*%
D20*
%TO.C,SW45*%
X214245312Y-108165000D03*
D11*
X209165312Y-108165000D03*
D20*
X204085312Y-108165000D03*
D21*
X201805312Y-105625000D03*
D22*
X205355312Y-105625000D03*
X211705312Y-103085000D03*
D21*
X215255312Y-103085000D03*
%TD*%
D37*
%TO.C,R5*%
X352740000Y-113870000D03*
X352740000Y-114890000D03*
%TD*%
D11*
%TO.C,SW78*%
X185352812Y-146265000D03*
D20*
X190432812Y-146265000D03*
X180272812Y-146265000D03*
D22*
X181542812Y-143725000D03*
D21*
X177992812Y-143725000D03*
D22*
X187892812Y-141185000D03*
D21*
X191442812Y-141185000D03*
%TD*%
D11*
%TO.C,SW16*%
X356802812Y-65302500D03*
D20*
X351722812Y-65302500D03*
X361882812Y-65302500D03*
D21*
X349442812Y-62762500D03*
D22*
X352992812Y-62762500D03*
X359342812Y-60222500D03*
D21*
X362892812Y-60222500D03*
%TD*%
D19*
%TO.C,D23*%
X145665312Y-91558750D03*
X145665312Y-88258750D03*
%TD*%
%TO.C,D75*%
X226627812Y-148708750D03*
X226627812Y-145408750D03*
%TD*%
D20*
%TO.C,SW104*%
X380932812Y-165315000D03*
D11*
X375852812Y-165315000D03*
D20*
X370772812Y-165315000D03*
D22*
X372042812Y-162775000D03*
D21*
X368492812Y-162775000D03*
X381942812Y-160235000D03*
D22*
X378392812Y-160235000D03*
%TD*%
D20*
%TO.C,SW59*%
X123757812Y-127215000D03*
D11*
X118677812Y-127215000D03*
D20*
X113597812Y-127215000D03*
D22*
X114867812Y-124675000D03*
D21*
X111317812Y-124675000D03*
X124767812Y-122135000D03*
D22*
X121217812Y-122135000D03*
%TD*%
D20*
%TO.C,SW79*%
X199322812Y-146265000D03*
D11*
X204402812Y-146265000D03*
D20*
X209482812Y-146265000D03*
D21*
X197042812Y-143725000D03*
D22*
X200592812Y-143725000D03*
D21*
X210492812Y-141185000D03*
D22*
X206942812Y-141185000D03*
%TD*%
D20*
%TO.C,SW47*%
X242185312Y-108165000D03*
D11*
X247265312Y-108165000D03*
D20*
X252345312Y-108165000D03*
D21*
X239905312Y-105625000D03*
D22*
X243455312Y-105625000D03*
D21*
X253355312Y-103085000D03*
D22*
X249805312Y-103085000D03*
%TD*%
D19*
%TO.C,D36*%
X55177812Y-110608750D03*
X55177812Y-107308750D03*
%TD*%
D20*
%TO.C,SW25*%
X185670312Y-89115000D03*
D11*
X180590312Y-89115000D03*
D20*
X175510312Y-89115000D03*
D21*
X173230312Y-86575000D03*
D22*
X176780312Y-86575000D03*
X183130312Y-84035000D03*
D21*
X186680312Y-84035000D03*
%TD*%
D19*
%TO.C,D57*%
X140902812Y-129658750D03*
X140902812Y-126358750D03*
%TD*%
D11*
%TO.C,SW44*%
X190115312Y-108165000D03*
D20*
X195195312Y-108165000D03*
X185035312Y-108165000D03*
D22*
X186305312Y-105625000D03*
D21*
X182755312Y-105625000D03*
D22*
X192655312Y-103085000D03*
D21*
X196205312Y-103085000D03*
%TD*%
D20*
%TO.C,SW13*%
X285047812Y-65302500D03*
X295207812Y-65302500D03*
D11*
X290127812Y-65302500D03*
D21*
X282767812Y-62762500D03*
D22*
X286317812Y-62762500D03*
X292667812Y-60222500D03*
D21*
X296217812Y-60222500D03*
%TD*%
D11*
%TO.C,SW77*%
X166302812Y-146265000D03*
D20*
X161222812Y-146265000D03*
X171382812Y-146265000D03*
D21*
X158942812Y-143725000D03*
D22*
X162492812Y-143725000D03*
X168842812Y-141185000D03*
D21*
X172392812Y-141185000D03*
%TD*%
D20*
%TO.C,SW83*%
X292826562Y-146265000D03*
X282666562Y-146265000D03*
D11*
X287746562Y-146265000D03*
D22*
X291556562Y-148805000D03*
D28*
X295106562Y-148805000D03*
D22*
X285206562Y-151345000D03*
D28*
X281656562Y-151345000D03*
%TD*%
D11*
%TO.C,SW63*%
X194877812Y-127215000D03*
D20*
X199957812Y-127215000D03*
X189797812Y-127215000D03*
D21*
X187517812Y-124675000D03*
D22*
X191067812Y-124675000D03*
D21*
X200967812Y-122135000D03*
D22*
X197417812Y-122135000D03*
%TD*%
D32*
%TO.C,D78*%
X299777812Y-152615000D03*
X296477812Y-152615000D03*
%TD*%
D19*
%TO.C,D77*%
X264727812Y-148708750D03*
X264727812Y-145408750D03*
%TD*%
D30*
%TO.C,C4*%
X320610312Y-74872500D03*
X321570312Y-74872500D03*
%TD*%
D20*
%TO.C,SW52*%
X342832812Y-108165000D03*
X332672812Y-108165000D03*
D11*
X337752812Y-108165000D03*
D21*
X330392812Y-105625000D03*
D22*
X333942812Y-105625000D03*
D21*
X343842812Y-103085000D03*
D22*
X340292812Y-103085000D03*
%TD*%
D38*
%TO.C,C15*%
X341080589Y-138319411D03*
X341759411Y-137640589D03*
%TD*%
D19*
%TO.C,D54*%
X83752812Y-129658750D03*
X83752812Y-126358750D03*
%TD*%
%TO.C,D60*%
X198052812Y-129658750D03*
X198052812Y-126358750D03*
%TD*%
%TO.C,D90*%
X359977812Y-167758750D03*
X359977812Y-164458750D03*
%TD*%
%TO.C,D73*%
X188527812Y-148708750D03*
X188527812Y-145408750D03*
%TD*%
%TO.C,D28*%
X240915312Y-91558750D03*
X240915312Y-88258750D03*
%TD*%
%TO.C,D64*%
X274252812Y-129658750D03*
X274252812Y-126358750D03*
%TD*%
D11*
%TO.C,SW46*%
X228215312Y-108165000D03*
D20*
X233295312Y-108165000D03*
X223135312Y-108165000D03*
D21*
X220855312Y-105625000D03*
D22*
X224405312Y-105625000D03*
X230755312Y-103085000D03*
D21*
X234305312Y-103085000D03*
%TD*%
D19*
%TO.C,D85*%
X249646562Y-160490000D03*
X249646562Y-163790000D03*
%TD*%
D23*
%TO.C,C10*%
X332800312Y-124380000D03*
X331840312Y-124380000D03*
%TD*%
D20*
%TO.C,SW23*%
X147570312Y-89115000D03*
X137410312Y-89115000D03*
D11*
X142490312Y-89115000D03*
D21*
X135130312Y-86575000D03*
D22*
X138680312Y-86575000D03*
D21*
X148580312Y-84035000D03*
D22*
X145030312Y-84035000D03*
%TD*%
D19*
%TO.C,D37*%
X78990312Y-110608750D03*
X78990312Y-107308750D03*
%TD*%
D20*
%TO.C,SW101*%
X316639062Y-165315000D03*
D11*
X311559062Y-165315000D03*
D20*
X306479062Y-165315000D03*
D22*
X315369062Y-167855000D03*
D28*
X318919062Y-167855000D03*
D22*
X309019062Y-170395000D03*
D28*
X305469062Y-170395000D03*
%TD*%
D19*
%TO.C,D84*%
X183765312Y-159696250D03*
X183765312Y-162996250D03*
%TD*%
D39*
%TO.C,C16*%
X338089411Y-138659411D03*
X337410589Y-137980589D03*
%TD*%
D30*
%TO.C,C12*%
X342400312Y-124402500D03*
X343360312Y-124402500D03*
%TD*%
D19*
%TO.C,D51*%
X359977812Y-110608750D03*
X359977812Y-107308750D03*
%TD*%
%TO.C,D71*%
X150427812Y-148708750D03*
X150427812Y-145408750D03*
%TD*%
D20*
%TO.C,SW55*%
X54701562Y-127215000D03*
D11*
X49621562Y-127215000D03*
D20*
X44541562Y-127215000D03*
D22*
X45811562Y-124675000D03*
D21*
X42261562Y-124675000D03*
D22*
X52161562Y-122135000D03*
D21*
X55711562Y-122135000D03*
%TD*%
D11*
%TO.C,SW38*%
X75815312Y-108165000D03*
D20*
X70735312Y-108165000D03*
X80895312Y-108165000D03*
D22*
X72005312Y-105625000D03*
D21*
X68455312Y-105625000D03*
X81905312Y-103085000D03*
D22*
X78355312Y-103085000D03*
%TD*%
D20*
%TO.C,SW21*%
X109470312Y-89115000D03*
X99310312Y-89115000D03*
D11*
X104390312Y-89115000D03*
D22*
X100580312Y-86575000D03*
D21*
X97030312Y-86575000D03*
X110480312Y-84035000D03*
D22*
X106930312Y-84035000D03*
%TD*%
D20*
%TO.C,SW15*%
X342832812Y-65302500D03*
D11*
X337752812Y-65302500D03*
D20*
X332672812Y-65302500D03*
D21*
X330392812Y-62762500D03*
D22*
X333942812Y-62762500D03*
D21*
X343842812Y-60222500D03*
D22*
X340292812Y-60222500D03*
%TD*%
D19*
%TO.C,D34*%
X359977812Y-91558750D03*
X359977812Y-88258750D03*
%TD*%
%TO.C,D81*%
X59940312Y-160490000D03*
X59940312Y-163790000D03*
%TD*%
%TO.C,D17*%
X379027812Y-67746250D03*
X379027812Y-64446250D03*
%TD*%
D11*
%TO.C,SW81*%
X242502812Y-146265000D03*
D20*
X237422812Y-146265000D03*
X247582812Y-146265000D03*
D22*
X238692812Y-143725000D03*
D21*
X235142812Y-143725000D03*
D22*
X245042812Y-141185000D03*
D21*
X248592812Y-141185000D03*
%TD*%
D11*
%TO.C,SW8*%
X190115312Y-65302500D03*
D20*
X185035312Y-65302500D03*
X195195312Y-65302500D03*
D22*
X186305312Y-62762500D03*
D21*
X182755312Y-62762500D03*
D22*
X192655312Y-60222500D03*
D21*
X196205312Y-60222500D03*
%TD*%
D20*
%TO.C,SW70*%
X54701562Y-146265000D03*
X44541562Y-146265000D03*
D11*
X49621562Y-146265000D03*
D22*
X53431562Y-148805000D03*
D28*
X56981562Y-148805000D03*
D22*
X47081562Y-151345000D03*
D28*
X43531562Y-151345000D03*
%TD*%
D20*
%TO.C,SW19*%
X61210312Y-89115000D03*
D11*
X66290312Y-89115000D03*
D20*
X71370312Y-89115000D03*
D22*
X62480312Y-86575000D03*
D21*
X58930312Y-86575000D03*
D22*
X68830312Y-84035000D03*
D21*
X72380312Y-84035000D03*
%TD*%
D32*
%TO.C,D66*%
X54290312Y-155062500D03*
X50990312Y-155062500D03*
%TD*%
D40*
%TO.C,R4*%
X338449376Y-134440624D03*
X339170624Y-133719376D03*
%TD*%
D20*
%TO.C,SW68*%
X295207812Y-127215000D03*
X285047812Y-127215000D03*
D11*
X290127812Y-127215000D03*
D21*
X282767812Y-124675000D03*
D22*
X286317812Y-124675000D03*
D21*
X296217812Y-122135000D03*
D22*
X292667812Y-122135000D03*
%TD*%
D20*
%TO.C,SW6*%
X146935312Y-65302500D03*
X157095312Y-65302500D03*
D11*
X152015312Y-65302500D03*
D21*
X144655312Y-62762500D03*
D22*
X148205312Y-62762500D03*
X154555312Y-60222500D03*
D21*
X158105312Y-60222500D03*
%TD*%
D41*
%TO.C,R6*%
X328050312Y-57452500D03*
X329070312Y-57452500D03*
%TD*%
D20*
%TO.C,SW50*%
X314257812Y-108165000D03*
X304097812Y-108165000D03*
D11*
X309177812Y-108165000D03*
D22*
X312987812Y-110705000D03*
D28*
X316537812Y-110705000D03*
X303087812Y-113245000D03*
D22*
X306637812Y-113245000D03*
%TD*%
D20*
%TO.C,SW1*%
X42160312Y-65302500D03*
D11*
X47240312Y-65302500D03*
D20*
X52320312Y-65302500D03*
D22*
X43430312Y-62762500D03*
D42*
X40400312Y-62762500D03*
D22*
X49780312Y-60222500D03*
D21*
X53330312Y-60222500D03*
%TD*%
D11*
%TO.C,SW64*%
X213927812Y-127215000D03*
D20*
X219007812Y-127215000D03*
X208847812Y-127215000D03*
D22*
X210117812Y-124675000D03*
D21*
X206567812Y-124675000D03*
X220017812Y-122135000D03*
D22*
X216467812Y-122135000D03*
%TD*%
D19*
%TO.C,D24*%
X164715312Y-91558750D03*
X164715312Y-88258750D03*
%TD*%
%TO.C,D21*%
X107565312Y-91558750D03*
X107565312Y-88258750D03*
%TD*%
%TO.C,D59*%
X179002812Y-129658750D03*
X179002812Y-126358750D03*
%TD*%
%TO.C,D86*%
X271871562Y-160490000D03*
X271871562Y-163790000D03*
%TD*%
D11*
%TO.C,SW10*%
X232977812Y-65302500D03*
D20*
X238057812Y-65302500D03*
X227897812Y-65302500D03*
D21*
X225617812Y-62762500D03*
D22*
X229167812Y-62762500D03*
D21*
X239067812Y-60222500D03*
D22*
X235517812Y-60222500D03*
%TD*%
D19*
%TO.C,D30*%
X279015312Y-91558750D03*
X279015312Y-88258750D03*
%TD*%
%TO.C,D22*%
X126615312Y-91558750D03*
X126615312Y-88258750D03*
%TD*%
D16*
%TO.C,J4*%
X378845312Y-128457500D03*
D17*
X378845312Y-130997500D03*
X378845312Y-133537500D03*
X378845312Y-136077500D03*
X378845312Y-138617500D03*
X378845312Y-141157500D03*
X378845312Y-143697500D03*
X378845312Y-146237500D03*
X378845312Y-148777500D03*
X378845312Y-151317500D03*
%TD*%
D19*
%TO.C,D12*%
X274252812Y-67746250D03*
X274252812Y-64446250D03*
%TD*%
D43*
%TO.C,U1*%
X322510312Y-72080000D03*
X320610312Y-72080000D03*
X321560312Y-70205000D03*
%TD*%
D20*
%TO.C,SW71*%
X54066562Y-146265000D03*
X64226562Y-146265000D03*
D11*
X59146562Y-146265000D03*
D21*
X51786562Y-143725000D03*
D22*
X55336562Y-143725000D03*
D21*
X65236562Y-141185000D03*
D22*
X61686562Y-141185000D03*
%TD*%
D19*
%TO.C,D48*%
X288540312Y-110608750D03*
X288540312Y-107308750D03*
%TD*%
D20*
%TO.C,SW33*%
X308860312Y-89115000D03*
X319020312Y-89115000D03*
D11*
X313940312Y-89115000D03*
D22*
X317750312Y-91655000D03*
D28*
X321300312Y-91655000D03*
X307850312Y-94195000D03*
D22*
X311400312Y-94195000D03*
%TD*%
D19*
%TO.C,D31*%
X285365312Y-96321250D03*
X285365312Y-93021250D03*
%TD*%
D11*
%TO.C,SW93*%
X168684062Y-165315000D03*
D20*
X173764062Y-165315000D03*
X163604062Y-165315000D03*
D22*
X164874062Y-162775000D03*
D21*
X161324062Y-162775000D03*
D22*
X171224062Y-160235000D03*
D21*
X174774062Y-160235000D03*
%TD*%
D19*
%TO.C,D67*%
X62020312Y-148762500D03*
X62020312Y-152062500D03*
%TD*%
D16*
%TO.C,SW0*%
X357910000Y-113870000D03*
D17*
X355370000Y-113870000D03*
%TD*%
D19*
%TO.C,D65*%
X309840000Y-129920000D03*
X309840000Y-126620000D03*
%TD*%
D11*
%TO.C,SW103*%
X356802812Y-165315000D03*
D20*
X361882812Y-165315000D03*
X351722812Y-165315000D03*
D21*
X349442812Y-162775000D03*
D22*
X352992812Y-162775000D03*
X359342812Y-160235000D03*
D21*
X362892812Y-160235000D03*
%TD*%
D19*
%TO.C,D1*%
X50415312Y-67746250D03*
X50415312Y-64446250D03*
%TD*%
D20*
%TO.C,SW67*%
X276157812Y-127215000D03*
D11*
X271077812Y-127215000D03*
D20*
X265997812Y-127215000D03*
D22*
X267267812Y-124675000D03*
D21*
X263717812Y-124675000D03*
D22*
X273617812Y-122135000D03*
D21*
X277167812Y-122135000D03*
%TD*%
D19*
%TO.C,D74*%
X207577812Y-148708750D03*
X207577812Y-145408750D03*
%TD*%
%TO.C,D10*%
X236152812Y-67746250D03*
X236152812Y-64446250D03*
%TD*%
D20*
%TO.C,SW88*%
X57082812Y-165315000D03*
X46922812Y-165315000D03*
D11*
X52002812Y-165315000D03*
D28*
X59362812Y-167855000D03*
D22*
X55812812Y-167855000D03*
X49462812Y-170395000D03*
D28*
X45912812Y-170395000D03*
%TD*%
D19*
%TO.C,D61*%
X217102812Y-129658750D03*
X217102812Y-126358750D03*
%TD*%
%TO.C,D27*%
X221865312Y-91558750D03*
X221865312Y-88258750D03*
%TD*%
D11*
%TO.C,SW57*%
X80577812Y-127215000D03*
D20*
X75497812Y-127215000D03*
X85657812Y-127215000D03*
D22*
X76767812Y-124675000D03*
D21*
X73217812Y-124675000D03*
X86667812Y-122135000D03*
D22*
X83117812Y-122135000D03*
%TD*%
D44*
%TO.C,J3*%
X324310312Y-84222500D03*
X325310312Y-84222500D03*
X326310312Y-84222500D03*
X327310312Y-84222500D03*
D45*
X328610312Y-80347500D03*
X323010312Y-80347500D03*
%TD*%
D20*
%TO.C,SW85*%
X319020312Y-146265000D03*
D11*
X313940312Y-146265000D03*
D20*
X308860312Y-146265000D03*
D22*
X317750312Y-148805000D03*
D28*
X321300312Y-148805000D03*
X307850312Y-151345000D03*
D22*
X311400312Y-151345000D03*
%TD*%
D20*
%TO.C,SW39*%
X89785312Y-108165000D03*
X99945312Y-108165000D03*
D11*
X94865312Y-108165000D03*
D22*
X91055312Y-105625000D03*
D21*
X87505312Y-105625000D03*
D22*
X97405312Y-103085000D03*
D21*
X100955312Y-103085000D03*
%TD*%
D11*
%TO.C,SW90*%
X75815312Y-165315000D03*
D20*
X80895312Y-165315000D03*
X70735312Y-165315000D03*
D22*
X79625312Y-167855000D03*
D28*
X83175312Y-167855000D03*
X69725312Y-170395000D03*
D22*
X73275312Y-170395000D03*
%TD*%
D11*
%TO.C,SW20*%
X85340312Y-89115000D03*
D20*
X90420312Y-89115000D03*
X80260312Y-89115000D03*
D21*
X77980312Y-86575000D03*
D22*
X81530312Y-86575000D03*
X87880312Y-84035000D03*
D21*
X91430312Y-84035000D03*
%TD*%
D19*
%TO.C,D3*%
X93277812Y-67746250D03*
X93277812Y-64446250D03*
%TD*%
%TO.C,D80*%
X359977812Y-148708750D03*
X359977812Y-145408750D03*
%TD*%
%TO.C,D83*%
X107565312Y-160490000D03*
X107565312Y-163790000D03*
%TD*%
%TO.C,D14*%
X317115312Y-67746250D03*
X317115312Y-64446250D03*
%TD*%
%TO.C,D56*%
X121852812Y-129658750D03*
X121852812Y-126358750D03*
%TD*%
%TO.C,D13*%
X293302812Y-67746250D03*
X293302812Y-64446250D03*
%TD*%
%TO.C,D11*%
X255202812Y-67746250D03*
X255202812Y-64446250D03*
%TD*%
D20*
%TO.C,SW18*%
X42160312Y-89115000D03*
X52320312Y-89115000D03*
D11*
X47240312Y-89115000D03*
D42*
X40365312Y-86575000D03*
D22*
X43430312Y-86575000D03*
D21*
X53330312Y-84035000D03*
D22*
X49780312Y-84035000D03*
%TD*%
D19*
%TO.C,D5*%
X131377812Y-67746250D03*
X131377812Y-64446250D03*
%TD*%
%TO.C,D70*%
X131377812Y-148708750D03*
X131377812Y-145408750D03*
%TD*%
%TO.C,D46*%
X250440312Y-110608750D03*
X250440312Y-107308750D03*
%TD*%
D24*
%TO.C,C17*%
X343710000Y-116710000D03*
X343710000Y-115750000D03*
%TD*%
D20*
%TO.C,SW91*%
X102326562Y-165315000D03*
X92166562Y-165315000D03*
D11*
X97246562Y-165315000D03*
D22*
X93436562Y-162775000D03*
D21*
X89886562Y-162775000D03*
D22*
X99786562Y-160235000D03*
D21*
X103336562Y-160235000D03*
%TD*%
D32*
%TO.C,D32*%
X312370312Y-98052500D03*
X309070312Y-98052500D03*
%TD*%
D19*
%TO.C,D63*%
X255202812Y-129658750D03*
X255202812Y-126358750D03*
%TD*%
D20*
%TO.C,SW100*%
X304097812Y-165315000D03*
X314257812Y-165315000D03*
D11*
X309177812Y-165315000D03*
D22*
X305367812Y-162775000D03*
D21*
X301817812Y-162775000D03*
D22*
X311717812Y-160235000D03*
D21*
X315267812Y-160235000D03*
%TD*%
D19*
%TO.C,D38*%
X98040312Y-110608750D03*
X98040312Y-107308750D03*
%TD*%
D11*
%TO.C,SW94*%
X180590312Y-165315000D03*
D20*
X175510312Y-165315000D03*
X185670312Y-165315000D03*
D22*
X184400312Y-167855000D03*
D28*
X187950312Y-167855000D03*
D22*
X178050312Y-170395000D03*
D28*
X174500312Y-170395000D03*
%TD*%
D19*
%TO.C,D33*%
X340927812Y-91558750D03*
X340927812Y-88258750D03*
%TD*%
D11*
%TO.C,SW54*%
X375852812Y-108165000D03*
D20*
X380932812Y-108165000D03*
X370772812Y-108165000D03*
D22*
X372042812Y-105625000D03*
D21*
X368492812Y-105625000D03*
D22*
X378392812Y-103085000D03*
D21*
X381942812Y-103085000D03*
%TD*%
D20*
%TO.C,SW27*%
X213610312Y-89115000D03*
X223770312Y-89115000D03*
D11*
X218690312Y-89115000D03*
D21*
X211330312Y-86575000D03*
D22*
X214880312Y-86575000D03*
D21*
X224780312Y-84035000D03*
D22*
X221230312Y-84035000D03*
%TD*%
D11*
%TO.C,SW41*%
X132965312Y-108165000D03*
D20*
X127885312Y-108165000D03*
X138045312Y-108165000D03*
D22*
X129155312Y-105625000D03*
D21*
X125605312Y-105625000D03*
X139055312Y-103085000D03*
D22*
X135505312Y-103085000D03*
%TD*%
M02*
