M48
; DRILL file {KiCad (6.0.6)} date Wed Jan  4 14:03:08 2023
; FORMAT={-:-/ absolute / metric / decimal}
; #@! TF.CreationDate,2023-01-04T14:03:08+11:00
; #@! TF.GenerationSoftware,Kicad,Pcbnew,(6.0.6)
; #@! TF.FileFunction,Plated,1,2,PTH
FMAT,2
METRIC
; #@! TA.AperFunction,Plated,PTH,ViaDrill
T1C0.300
; #@! TA.AperFunction,Plated,PTH,ComponentDrill
T2C0.350
; #@! TA.AperFunction,Plated,PTH,ViaDrill
T3C0.400
; #@! TA.AperFunction,Plated,PTH,ComponentDrill
T4C0.600
; #@! TA.AperFunction,Plated,PTH,ComponentDrill
T5C1.000
; #@! TA.AperFunction,Plated,PTH,ComponentDrill
T6C3.000
%
G90
G05
T1
X39.81Y-61.822
X39.81Y-63.703
X39.81Y-85.635
X39.81Y-87.515
X41.299Y-123.735
X41.299Y-125.615
X41.299Y-161.835
X41.299Y-163.715
X42.564Y-150.405
X42.564Y-152.285
X43.68Y-104.685
X43.68Y-106.565
X44.945Y-169.455
X44.945Y-171.335
X47.327Y-131.355
X47.327Y-133.235
X50.824Y-142.785
X50.824Y-144.022
X54.298Y-59.282
X54.298Y-61.162
X54.298Y-83.095
X54.298Y-84.975
X56.679Y-121.195
X56.679Y-123.075
X56.679Y-159.295
X56.679Y-161.175
X57.944Y-148.507
X57.944Y-149.745
X57.968Y-85.635
X57.968Y-87.515
X59.06Y-102.145
X59.06Y-104.025
X59.31Y-165.452
X60.325Y-166.915
X60.325Y-168.795
X62.707Y-128.815
X62.707Y-130.695
X62.73Y-61.822
X62.73Y-63.703
X63.995Y-150.405
X63.995Y-152.285
X65.112Y-161.835
X65.112Y-163.715
X66.204Y-140.245
X66.204Y-142.125
X67.493Y-104.685
X67.493Y-106.565
X68.758Y-169.455
X68.758Y-171.335
X72.255Y-123.735
X72.255Y-125.615
X73.348Y-83.095
X73.348Y-84.975
X77.018Y-85.635
X77.018Y-87.515
X78.11Y-59.282
X78.11Y-61.162
X79.375Y-147.865
X79.375Y-149.745
X80.492Y-159.295
X80.492Y-161.175
X81.78Y-61.822
X81.78Y-63.703
X81.78Y-142.785
X81.78Y-144.665
X82.873Y-102.145
X82.873Y-104.025
X83.35Y-165.532
X84.138Y-166.915
X84.138Y-168.795
X86.543Y-104.685
X86.543Y-106.565
X87.635Y-121.195
X87.635Y-123.075
X88.924Y-161.835
X88.924Y-163.715
X91.305Y-123.735
X91.305Y-125.615
X92.398Y-83.095
X92.398Y-84.975
X92.57Y-169.455
X92.57Y-170.552
X96.068Y-85.635
X96.068Y-87.515
X97.16Y-59.282
X97.16Y-61.162
X97.16Y-140.245
X97.16Y-142.125
X100.83Y-61.822
X100.83Y-63.703
X100.83Y-142.785
X100.83Y-144.665
X101.923Y-102.145
X101.923Y-104.025
X104.304Y-159.295
X104.304Y-161.175
X105.593Y-104.685
X105.593Y-106.565
X106.685Y-121.195
X106.685Y-123.075
X107.01Y-165.492
X107.95Y-166.915
X107.95Y-168.795
X110.355Y-123.735
X110.355Y-125.615
X111.448Y-83.095
X111.448Y-84.975
X115.118Y-85.635
X115.118Y-87.515
X116.21Y-59.282
X116.21Y-61.162
X116.21Y-140.245
X116.21Y-142.125
X119.88Y-61.822
X119.88Y-63.703
X119.88Y-142.785
X119.88Y-144.665
X120.973Y-102.145
X120.973Y-104.025
X124.643Y-104.685
X124.643Y-106.565
X125.735Y-121.195
X125.735Y-123.075
X129.405Y-123.735
X129.405Y-125.615
X130.498Y-83.095
X130.498Y-84.975
X134.168Y-85.635
X134.168Y-87.515
X135.26Y-59.282
X135.26Y-61.162
X135.26Y-140.245
X135.26Y-142.125
X138.93Y-142.785
X138.93Y-144.665
X140.023Y-102.145
X140.023Y-104.025
X143.693Y-61.822
X143.693Y-63.703
X143.693Y-104.685
X143.693Y-106.565
X144.785Y-121.195
X144.785Y-123.075
X148.455Y-123.735
X148.455Y-125.615
X149.548Y-83.095
X149.548Y-84.975
X153.218Y-85.635
X153.218Y-87.515
X154.31Y-140.245
X154.31Y-142.125
X157.98Y-142.785
X157.98Y-144.665
X159.073Y-59.282
X159.073Y-61.162
X159.073Y-102.145
X159.073Y-104.025
X160.362Y-161.835
X160.362Y-163.715
X162.743Y-61.822
X162.743Y-63.703
X162.743Y-104.685
X162.743Y-106.565
X163.835Y-121.195
X163.835Y-123.075
X167.505Y-123.735
X167.505Y-125.615
X168.598Y-83.095
X168.598Y-84.975
X172.268Y-85.635
X172.268Y-87.515
X173.36Y-140.245
X173.36Y-142.125
X173.533Y-169.455
X173.533Y-171.335
X175.742Y-159.295
X175.742Y-161.175
X177.03Y-142.785
X177.03Y-144.665
X178.123Y-59.282
X178.123Y-61.162
X178.123Y-102.145
X178.123Y-104.025
X181.793Y-61.822
X181.793Y-63.703
X181.793Y-104.685
X181.793Y-106.565
X182.885Y-121.195
X182.885Y-123.075
X186.555Y-123.735
X186.555Y-125.615
X187.648Y-83.095
X187.648Y-84.975
X188.913Y-166.915
X188.913Y-168.795
X191.318Y-85.635
X191.318Y-87.515
X192.41Y-140.245
X192.41Y-142.125
X196.08Y-142.785
X196.08Y-144.665
X197.173Y-59.282
X197.173Y-61.162
X197.173Y-102.145
X197.173Y-104.025
X200.843Y-61.822
X200.843Y-63.703
X200.843Y-104.685
X200.843Y-106.565
X201.935Y-121.195
X201.935Y-123.075
X205.605Y-123.735
X205.605Y-125.615
X206.698Y-83.095
X206.698Y-84.975
X210.368Y-85.635
X210.368Y-87.515
X211.46Y-140.245
X211.46Y-142.125
X215.13Y-142.785
X215.13Y-144.665
X216.223Y-59.282
X216.223Y-61.162
X216.223Y-102.145
X216.223Y-104.025
X219.893Y-104.685
X219.893Y-106.565
X220.985Y-121.195
X220.985Y-123.075
X224.655Y-61.822
X224.655Y-63.703
X224.655Y-123.735
X224.655Y-125.615
X225.748Y-83.095
X225.748Y-84.975
X229.418Y-85.635
X229.418Y-87.515
X230.51Y-140.245
X230.51Y-142.125
X231.799Y-161.835
X231.799Y-163.715
X234.18Y-142.785
X234.18Y-144.665
X235.273Y-102.145
X235.273Y-104.025
X238.943Y-104.685
X238.943Y-106.565
X240.035Y-59.282
X240.035Y-61.162
X240.035Y-121.195
X240.035Y-123.075
X243.705Y-61.822
X243.705Y-63.703
X243.705Y-123.735
X243.705Y-125.615
X244.798Y-83.095
X244.798Y-84.975
X247.179Y-159.295
X247.179Y-161.175
X248.468Y-85.635
X248.468Y-87.515
X249.56Y-140.245
X249.56Y-142.125
X253.23Y-142.785
X253.23Y-144.665
X253.23Y-161.835
X253.23Y-163.715
X254.323Y-102.145
X254.323Y-104.025
X256.877Y-169.455
X256.877Y-171.335
X257.993Y-104.685
X257.993Y-106.565
X259.085Y-59.282
X259.085Y-61.162
X259.085Y-121.195
X259.085Y-123.075
X262.755Y-61.822
X262.755Y-63.703
X262.755Y-123.735
X262.755Y-125.615
X263.848Y-83.095
X263.848Y-84.975
X267.518Y-85.635
X267.518Y-87.515
X268.61Y-140.245
X268.61Y-142.125
X268.61Y-159.295
X268.61Y-161.175
X271.29Y-165.452
X272.257Y-166.915
X272.257Y-168.795
X273.373Y-102.145
X273.373Y-104.025
X277.043Y-104.685
X277.043Y-106.565
X277.043Y-161.835
X277.043Y-163.715
X278.135Y-59.282
X278.135Y-61.162
X278.135Y-121.195
X278.135Y-123.075
X280.689Y-150.405
X280.689Y-152.285
X280.689Y-169.455
X280.689Y-171.335
X281.805Y-61.822
X281.805Y-63.703
X281.805Y-123.735
X281.805Y-125.615
X282.898Y-83.095
X282.898Y-84.975
X287.833Y-93.255
X287.833Y-95.135
X288.949Y-142.785
X288.949Y-144.022
X292.423Y-102.145
X292.423Y-104.025
X292.423Y-159.295
X292.423Y-161.175
X293.712Y-124.032
X293.712Y-125.615
X295.25Y-165.582
X296.069Y-148.507
X296.069Y-149.745
X296.069Y-166.915
X296.069Y-168.795
X296.093Y-85.635
X296.093Y-86.873
X297.185Y-59.282
X297.185Y-61.162
X297.185Y-121.195
X297.185Y-122.772
X300.855Y-161.835
X300.855Y-163.715
X302.12Y-112.305
X302.12Y-114.185
X303.213Y-91.358
X303.213Y-92.595
X303.237Y-114.21
X303.237Y-116.09
X304.329Y-140.245
X304.329Y-142.125
X304.502Y-169.455
X304.502Y-171.335
X305.618Y-61.822
X305.618Y-63.703
X306.883Y-93.255
X306.883Y-95.135
X306.883Y-150.405
X306.883Y-152.285
X309.092Y-121.195
X309.092Y-123.075
X310.97Y-100.512
X311.473Y-83.095
X311.473Y-84.975
X316.235Y-159.295
X316.235Y-161.175
X317.5Y-109.765
X317.5Y-111.645
X318.617Y-111.67
X318.617Y-113.55
X318.78Y-165.492
X319.5Y-159.19
X319.81Y-68.543
X319.882Y-166.915
X319.882Y-168.795
X320.5Y-59.282
X320.5Y-61.162
X320.61Y-67.362
X321.3Y-119.34
X321.42Y-156.83
X322.1Y-80.352
X322.263Y-90.715
X322.263Y-92.595
X322.263Y-147.865
X322.263Y-149.745
X322.33Y-74.873
X322.35Y-73.712
X322.61Y-99.792
X322.63Y-101.233
X322.92Y-66.602
X323.01Y-79.142
X323.01Y-81.552
X323.39Y-71.093
X323.39Y-72.812
X323.39Y-75.552
X323.39Y-77.272
X323.63Y-68.123
X324.098Y-57.492
X324.6Y-66.602
X324.6Y-68.123
X324.6Y-85.602
X324.6Y-99.792
X324.61Y-101.233
X324.62Y-59.932
X324.65Y-63.972
X325.35Y-59.532
X325.35Y-60.332
X326.59Y-59.953
X326.98Y-63.953
X327.01Y-77.263
X327.01Y-101.233
X327.02Y-66.602
X327.02Y-68.123
X327.02Y-75.542
X327.02Y-99.802
X327.03Y-82.843
X327.03Y-85.602
X327.11Y-57.512
X327.12Y-70.992
X327.12Y-72.922
X327.86Y-125.502
X327.92Y-118.432
X328.61Y-79.142
X328.62Y-81.552
X328.94Y-119.453
X329.18Y-117.272
X329.43Y-61.822
X329.43Y-63.703
X329.43Y-85.635
X329.43Y-87.515
X329.43Y-104.685
X329.43Y-106.565
X329.43Y-161.835
X329.43Y-163.715
X329.52Y-80.343
X329.84Y-124.412
X330.17Y-118.272
X330.63Y-128.482
X331.61Y-97.802
X332.46Y-113.972
X332.47Y-67.712
X333.46Y-114.972
X334.17Y-112.282
X334.77Y-73.522
X335.17Y-113.272
X335.29Y-112.152
X335.32Y-116.942
X335.58Y-69.513
X335.72Y-120.52
X335.78Y-129.082
X336.05Y-125.002
X336.39Y-73.522
X336.95Y-132.403
X337.15Y-133.262
X337.44Y-139.29
X337.47Y-120.593
X337.76Y-116.942
X337.88Y-133.63
X338.85Y-120.312
X339.63Y-120.1
X341.76Y-139.0
X342.72Y-136.7
X342.85Y-115.75
X342.86Y-116.71
X344.06Y-124.402
X344.81Y-59.282
X344.81Y-61.162
X344.81Y-83.095
X344.81Y-84.975
X344.81Y-102.145
X344.81Y-104.025
X344.81Y-159.295
X344.81Y-161.175
X344.89Y-128.463
X348.48Y-61.822
X348.48Y-63.703
X348.48Y-85.635
X348.48Y-87.515
X348.48Y-104.685
X348.48Y-106.565
X348.48Y-142.785
X348.48Y-144.665
X348.48Y-161.835
X348.48Y-163.715
X353.99Y-73.522
X354.81Y-69.442
X355.62Y-73.522
X359.98Y-68.642
X363.75Y-92.623
X363.76Y-90.892
X363.78Y-109.932
X363.86Y-60.012
X363.86Y-61.162
X363.86Y-83.095
X363.86Y-84.975
X363.86Y-102.145
X363.86Y-104.025
X363.86Y-140.245
X363.86Y-142.125
X363.86Y-159.295
X363.86Y-161.175
X364.1Y-111.662
X366.96Y-116.272
X367.53Y-61.822
X367.53Y-63.703
X367.53Y-85.635
X367.53Y-87.515
X367.53Y-104.685
X367.53Y-106.565
X367.53Y-161.835
X367.53Y-163.715
X368.86Y-118.172
X371.69Y-112.34
X372.885Y-112.485
X374.0Y-112.53
X374.35Y-131.612
X374.84Y-113.44
X375.0Y-126.352
X382.91Y-59.282
X382.91Y-61.162
X382.91Y-83.095
X382.91Y-84.975
X382.91Y-102.145
X382.91Y-104.025
X382.91Y-159.295
X382.91Y-161.175
T2
X336.478Y-125.94
X336.478Y-127.215
X336.478Y-128.49
X337.753Y-125.94
X337.753Y-127.215
X337.753Y-128.49
X339.028Y-125.94
X339.028Y-127.215
X339.028Y-128.49
T3
X41.93Y-156.933
X48.22Y-99.462
X58.42Y-64.552
X71.67Y-80.962
X79.08Y-134.523
X90.72Y-80.962
X99.3Y-151.772
X101.92Y-115.093
X109.77Y-80.962
X120.98Y-166.222
X128.82Y-80.962
X139.34Y-137.542
X139.51Y-64.612
X147.87Y-80.962
X166.92Y-80.962
X177.6Y-116.252
X179.24Y-160.892
X185.97Y-80.962
X205.02Y-80.962
X216.61Y-137.322
X218.82Y-165.242
X219.81Y-64.552
X224.07Y-80.962
X235.32Y-115.312
X243.12Y-80.962
X250.96Y-152.072
X262.17Y-80.962
X276.32Y-142.713
X281.22Y-80.962
X281.7Y-119.24
X287.33Y-133.112
X296.41Y-105.832
X298.51Y-129.873
X298.81Y-83.212
X300.89Y-155.802
X301.21Y-65.112
X305.75Y-145.24
X310.9Y-87.123
X316.11Y-74.093
X318.03Y-134.523
X320.12Y-113.442
X321.39Y-153.312
X321.538Y-59.762
X321.56Y-71.953
X321.78Y-122.852
X321.878Y-76.415
X322.088Y-61.502
X323.16Y-141.843
X323.23Y-61.072
X328.21Y-112.512
X328.49Y-60.832
X330.752Y-124.316
X330.77Y-123.382
X330.93Y-154.672
X331.89Y-77.682
X333.99Y-120.072
X335.18Y-135.59
X337.01Y-103.522
X338.98Y-117.31
X340.03Y-117.31
X341.31Y-171.093
X342.0Y-77.682
X346.07Y-164.172
X347.11Y-132.593
X348.18Y-113.453
X349.85Y-69.662
X356.803Y-154.202
X358.0Y-120.462
X358.37Y-97.242
X360.43Y-77.682
X361.09Y-135.532
X362.88Y-105.772
X365.02Y-65.662
X368.78Y-113.132
X369.07Y-123.512
X369.8Y-98.922
X369.82Y-70.552
X378.49Y-154.102
X378.86Y-123.343
T5
X328.53Y-142.07
X331.07Y-142.07
X333.61Y-142.07
X336.15Y-142.07
X338.69Y-142.07
X355.37Y-113.87
X357.91Y-113.87
X378.845Y-128.457
X378.845Y-130.998
X378.845Y-133.537
X378.845Y-136.077
X378.845Y-138.618
X378.845Y-141.157
X378.845Y-143.697
X378.845Y-146.237
X378.845Y-148.778
X378.845Y-151.317
T6
X43.43Y-62.762
X43.43Y-86.575
X45.812Y-124.675
X45.812Y-162.775
X47.082Y-151.345
X48.193Y-105.625
X49.463Y-170.395
X49.78Y-60.222
X49.78Y-84.035
X51.844Y-132.295
X52.162Y-122.135
X52.162Y-160.235
X53.432Y-148.805
X54.543Y-103.085
X55.337Y-143.725
X55.813Y-167.855
X58.194Y-129.755
X61.687Y-141.185
X62.48Y-86.575
X67.243Y-62.762
X68.513Y-151.345
X68.83Y-84.035
X69.624Y-162.775
X72.005Y-105.625
X73.275Y-170.395
X73.593Y-60.222
X74.863Y-148.805
X75.974Y-160.235
X76.768Y-124.675
X78.355Y-103.085
X79.625Y-167.855
X81.53Y-86.575
X83.118Y-122.135
X86.293Y-62.762
X86.293Y-143.725
X87.88Y-84.035
X91.055Y-105.625
X92.643Y-60.222
X92.643Y-141.185
X93.437Y-162.775
X95.818Y-124.675
X97.088Y-170.395
X97.405Y-103.085
X99.787Y-160.235
X100.58Y-86.575
X102.168Y-122.135
X103.438Y-167.855
X105.343Y-62.762
X105.343Y-143.725
X106.93Y-84.035
X110.105Y-105.625
X111.693Y-60.222
X111.693Y-141.185
X114.868Y-124.675
X116.455Y-103.085
X119.63Y-86.575
X121.218Y-122.135
X124.393Y-62.762
X124.393Y-143.725
X125.98Y-84.035
X129.155Y-105.625
X130.743Y-60.222
X130.743Y-141.185
X133.918Y-124.675
X135.505Y-103.085
X138.68Y-86.575
X140.268Y-122.135
X143.443Y-143.725
X145.03Y-84.035
X148.205Y-62.762
X148.205Y-105.625
X149.793Y-141.185
X152.968Y-124.675
X154.555Y-60.222
X154.555Y-103.085
X157.73Y-86.575
X159.318Y-122.135
X162.493Y-143.725
X164.08Y-84.035
X164.874Y-162.775
X167.255Y-62.762
X167.255Y-105.625
X168.843Y-141.185
X171.224Y-160.235
X172.018Y-124.675
X173.605Y-60.222
X173.605Y-103.085
X176.78Y-86.575
X178.05Y-170.395
X178.368Y-122.135
X181.543Y-143.725
X183.13Y-84.035
X184.4Y-167.855
X186.305Y-62.762
X186.305Y-105.625
X187.893Y-141.185
X191.068Y-124.675
X192.655Y-60.222
X192.655Y-103.085
X195.83Y-86.575
X197.418Y-122.135
X200.593Y-143.725
X202.18Y-84.035
X205.355Y-62.762
X205.355Y-105.625
X206.943Y-141.185
X210.118Y-124.675
X211.705Y-60.222
X211.705Y-103.085
X214.88Y-86.575
X216.468Y-122.135
X219.643Y-143.725
X221.23Y-84.035
X224.405Y-105.625
X225.993Y-141.185
X229.168Y-62.762
X229.168Y-124.675
X230.755Y-103.085
X233.93Y-86.575
X235.518Y-60.222
X235.518Y-122.135
X236.312Y-162.775
X238.693Y-143.725
X240.28Y-84.035
X242.662Y-160.235
X243.455Y-105.625
X245.043Y-141.185
X248.218Y-62.762
X248.218Y-124.675
X249.805Y-103.085
X252.98Y-86.575
X254.568Y-60.222
X254.568Y-122.135
X257.743Y-143.725
X257.743Y-162.775
X259.33Y-84.035
X261.394Y-170.395
X262.505Y-105.625
X264.093Y-141.185
X264.093Y-160.235
X267.268Y-62.762
X267.268Y-124.675
X267.744Y-167.855
X268.855Y-103.085
X272.03Y-86.575
X273.618Y-60.222
X273.618Y-122.135
X278.38Y-84.035
X281.555Y-105.625
X281.555Y-162.775
X285.207Y-151.345
X285.207Y-170.395
X286.318Y-62.762
X286.318Y-124.675
X287.905Y-103.085
X287.905Y-160.235
X291.557Y-148.805
X291.557Y-167.855
X292.35Y-94.195
X292.668Y-60.222
X292.668Y-122.135
X293.462Y-143.725
X298.224Y-124.675
X298.7Y-91.655
X299.812Y-141.185
X300.605Y-86.575
X304.574Y-122.135
X305.368Y-162.775
X306.638Y-113.245
X306.955Y-84.035
X307.749Y-115.15
X309.019Y-170.395
X310.13Y-62.762
X311.4Y-94.195
X311.4Y-151.345
X311.718Y-160.235
X312.988Y-110.705
X314.099Y-112.61
X315.369Y-167.855
X316.48Y-60.222
X317.75Y-91.655
X317.75Y-148.805
X333.943Y-62.762
X333.943Y-86.575
X333.943Y-105.625
X333.943Y-162.775
X340.293Y-60.222
X340.293Y-84.035
X340.293Y-103.085
X340.293Y-160.235
X352.993Y-62.762
X352.993Y-86.575
X352.993Y-105.625
X352.993Y-143.725
X352.993Y-162.775
X359.343Y-60.222
X359.343Y-84.035
X359.343Y-103.085
X359.343Y-141.185
X359.343Y-160.235
X372.043Y-62.762
X372.043Y-86.575
X372.043Y-105.625
X372.043Y-162.775
X378.393Y-60.222
X378.393Y-84.035
X378.393Y-103.085
X378.393Y-160.235
T4
X321.527Y-51.612G85X321.527Y-51.012
G05
X321.527Y-56.042G85X321.527Y-54.942
G05
X330.167Y-51.612G85X330.167Y-51.012
G05
X330.167Y-56.042G85X330.167Y-54.942
G05
T0
M30
