%TF.GenerationSoftware,KiCad,Pcbnew,(6.0.6)*%
%TF.CreationDate,2023-01-04T14:02:57+11:00*%
%TF.ProjectId,slime88,736c696d-6538-4382-9e6b-696361645f70,rev?*%
%TF.SameCoordinates,Original*%
%TF.FileFunction,Paste,Bot*%
%TF.FilePolarity,Positive*%
%FSLAX46Y46*%
G04 Gerber Fmt 4.6, Leading zero omitted, Abs format (unit mm)*
G04 Created by KiCad (PCBNEW (6.0.6)) date 2023-01-04 14:02:57*
%MOMM*%
%LPD*%
G01*
G04 APERTURE LIST*
G04 Aperture macros list*
%AMRoundRect*
0 Rectangle with rounded corners*
0 $1 Rounding radius*
0 $2 $3 $4 $5 $6 $7 $8 $9 X,Y pos of 4 corners*
0 Add a 4 corners polygon primitive as box body*
4,1,4,$2,$3,$4,$5,$6,$7,$8,$9,$2,$3,0*
0 Add four circle primitives for the rounded corners*
1,1,$1+$1,$2,$3*
1,1,$1+$1,$4,$5*
1,1,$1+$1,$6,$7*
1,1,$1+$1,$8,$9*
0 Add four rect primitives between the rounded corners*
20,1,$1+$1,$2,$3,$4,$5,0*
20,1,$1+$1,$4,$5,$6,$7,0*
20,1,$1+$1,$6,$7,$8,$9,0*
20,1,$1+$1,$8,$9,$2,$3,0*%
%AMRotRect*
0 Rectangle, with rotation*
0 The origin of the aperture is its center*
0 $1 length*
0 $2 width*
0 $3 Rotation angle, in degrees counterclockwise*
0 Add horizontal line*
21,1,$1,$2,0,0,$3*%
G04 Aperture macros list end*
%ADD10RotRect,1.400000X1.200000X45.000000*%
%ADD11R,1.200000X0.900000*%
%ADD12RoundRect,0.250000X1.025000X1.000000X-1.025000X1.000000X-1.025000X-1.000000X1.025000X-1.000000X0*%
%ADD13RoundRect,0.140000X0.140000X0.170000X-0.140000X0.170000X-0.140000X-0.170000X0.140000X-0.170000X0*%
%ADD14RoundRect,0.140000X0.170000X-0.140000X0.170000X0.140000X-0.170000X0.140000X-0.170000X-0.140000X0*%
%ADD15RoundRect,0.200000X-0.275000X0.200000X-0.275000X-0.200000X0.275000X-0.200000X0.275000X0.200000X0*%
%ADD16RoundRect,0.135000X0.135000X0.185000X-0.135000X0.185000X-0.135000X-0.185000X0.135000X-0.185000X0*%
%ADD17RoundRect,0.250000X-0.625000X0.375000X-0.625000X-0.375000X0.625000X-0.375000X0.625000X0.375000X0*%
%ADD18RoundRect,0.250000X-1.025000X-1.000000X1.025000X-1.000000X1.025000X1.000000X-1.025000X1.000000X0*%
%ADD19RoundRect,0.204695X0.818780X1.045305X-0.818780X1.045305X-0.818780X-1.045305X0.818780X-1.045305X0*%
%ADD20RoundRect,0.140000X-0.140000X-0.170000X0.140000X-0.170000X0.140000X0.170000X-0.140000X0.170000X0*%
%ADD21RoundRect,0.150000X0.650000X0.150000X-0.650000X0.150000X-0.650000X-0.150000X0.650000X-0.150000X0*%
%ADD22R,0.900000X1.200000*%
%ADD23RoundRect,0.150000X0.475000X0.150000X-0.475000X0.150000X-0.475000X-0.150000X0.475000X-0.150000X0*%
%ADD24RoundRect,0.250000X0.292217X0.292217X-0.292217X0.292217X-0.292217X-0.292217X0.292217X-0.292217X0*%
%ADD25RoundRect,0.050000X0.387500X0.050000X-0.387500X0.050000X-0.387500X-0.050000X0.387500X-0.050000X0*%
%ADD26RoundRect,0.050000X0.050000X0.387500X-0.050000X0.387500X-0.050000X-0.387500X0.050000X-0.387500X0*%
%ADD27RoundRect,0.135000X-0.185000X0.135000X-0.185000X-0.135000X0.185000X-0.135000X0.185000X0.135000X0*%
%ADD28RoundRect,0.140000X0.021213X-0.219203X0.219203X-0.021213X-0.021213X0.219203X-0.219203X0.021213X0*%
%ADD29RoundRect,0.140000X0.219203X0.021213X0.021213X0.219203X-0.219203X-0.021213X-0.021213X-0.219203X0*%
%ADD30RoundRect,0.135000X0.035355X-0.226274X0.226274X-0.035355X-0.035355X0.226274X-0.226274X0.035355X0*%
%ADD31RoundRect,0.135000X-0.135000X-0.185000X0.135000X-0.185000X0.135000X0.185000X-0.135000X0.185000X0*%
%ADD32RoundRect,0.180000X0.720000X1.070000X-0.720000X1.070000X-0.720000X-1.070000X0.720000X-1.070000X0*%
%ADD33RoundRect,0.150000X0.150000X-0.587500X0.150000X0.587500X-0.150000X0.587500X-0.150000X-0.587500X0*%
%ADD34RoundRect,0.150000X-0.150000X-0.625000X0.150000X-0.625000X0.150000X0.625000X-0.150000X0.625000X0*%
%ADD35RoundRect,0.250000X-0.350000X-0.650000X0.350000X-0.650000X0.350000X0.650000X-0.350000X0.650000X0*%
G04 APERTURE END LIST*
D10*
%TO.C,Y1*%
X338321142Y-136556777D03*
X339876777Y-135001142D03*
X341078858Y-136203223D03*
X339523223Y-137758858D03*
%TD*%
D11*
%TO.C,D39*%
X117090312Y-110608750D03*
X117090312Y-107308750D03*
%TD*%
D12*
%TO.C,SW95*%
X232761562Y-162775000D03*
X246211562Y-160235000D03*
%TD*%
%TO.C,SW69*%
X294674062Y-124675000D03*
X308124062Y-122135000D03*
%TD*%
%TO.C,SW102*%
X330392812Y-162775000D03*
X343842812Y-160235000D03*
%TD*%
%TO.C,SW86*%
X349442812Y-143725000D03*
X362892812Y-141185000D03*
%TD*%
D11*
%TO.C,D15*%
X340927812Y-67746250D03*
X340927812Y-64446250D03*
%TD*%
D13*
%TO.C,C9*%
X336140000Y-134620000D03*
X335180000Y-134620000D03*
%TD*%
D12*
%TO.C,SW29*%
X249430312Y-86575000D03*
X262880312Y-84035000D03*
%TD*%
D11*
%TO.C,D9*%
X212340312Y-67746250D03*
X212340312Y-64446250D03*
%TD*%
D12*
%TO.C,SW42*%
X144655312Y-105625000D03*
X158105312Y-103085000D03*
%TD*%
%TO.C,SW3*%
X82742812Y-62762500D03*
X96192812Y-60222500D03*
%TD*%
D14*
%TO.C,C3*%
X340040312Y-119350000D03*
X340040312Y-118390000D03*
%TD*%
D12*
%TO.C,SW11*%
X244667812Y-62762500D03*
X258117812Y-60222500D03*
%TD*%
%TO.C,SW28*%
X230380312Y-86575000D03*
X243830312Y-84035000D03*
%TD*%
D13*
%TO.C,C2*%
X336140000Y-133560000D03*
X335180000Y-133560000D03*
%TD*%
D12*
%TO.C,SW35*%
X349442812Y-86575000D03*
X362892812Y-84035000D03*
%TD*%
D13*
%TO.C,C11*%
X332800312Y-123382500D03*
X331840312Y-123382500D03*
%TD*%
D12*
%TO.C,SW36*%
X368492812Y-86575000D03*
X381942812Y-84035000D03*
%TD*%
%TO.C,SW12*%
X263717812Y-62762500D03*
X277167812Y-60222500D03*
%TD*%
D11*
%TO.C,D45*%
X231390312Y-110608750D03*
X231390312Y-107308750D03*
%TD*%
D12*
%TO.C,SW60*%
X130367812Y-124675000D03*
X143817812Y-122135000D03*
%TD*%
D11*
%TO.C,D42*%
X174240312Y-110608750D03*
X174240312Y-107308750D03*
%TD*%
D12*
%TO.C,SW73*%
X82742812Y-143725000D03*
X96192812Y-141185000D03*
%TD*%
D11*
%TO.C,D19*%
X69465312Y-91558750D03*
X69465312Y-88258750D03*
%TD*%
D12*
%TO.C,SW9*%
X201805312Y-62762500D03*
X215255312Y-60222500D03*
%TD*%
D14*
%TO.C,C1*%
X335040312Y-122062500D03*
X335040312Y-121102500D03*
%TD*%
D15*
%TO.C,R3*%
X335730312Y-117937500D03*
X335730312Y-119587500D03*
%TD*%
D12*
%TO.C,SW48*%
X258955312Y-105625000D03*
X272405312Y-103085000D03*
%TD*%
%TO.C,SW40*%
X106555312Y-105625000D03*
X120005312Y-103085000D03*
%TD*%
D11*
%TO.C,D18*%
X50415312Y-91558750D03*
X50415312Y-88258750D03*
%TD*%
D16*
%TO.C,R7*%
X323147812Y-57452500D03*
X322127812Y-57452500D03*
%TD*%
D12*
%TO.C,SW17*%
X368492812Y-62762500D03*
X381942812Y-60222500D03*
%TD*%
D11*
%TO.C,D44*%
X212340312Y-110608750D03*
X212340312Y-107308750D03*
%TD*%
D12*
%TO.C,SW7*%
X163705312Y-62762500D03*
X177155312Y-60222500D03*
%TD*%
D17*
%TO.C,F1*%
X321630312Y-62862500D03*
X321630312Y-65662500D03*
%TD*%
D12*
%TO.C,SW26*%
X192280312Y-86575000D03*
X205730312Y-84035000D03*
%TD*%
%TO.C,SW30*%
X268480312Y-86575000D03*
X281930312Y-84035000D03*
%TD*%
D11*
%TO.C,D52*%
X379027812Y-110608750D03*
X379027812Y-107308750D03*
%TD*%
D18*
%TO.C,SW97*%
X271294062Y-167855000D03*
X257844062Y-170395000D03*
%TD*%
D12*
%TO.C,SW14*%
X306580312Y-62762500D03*
D19*
X319773062Y-60222500D03*
%TD*%
D11*
%TO.C,D50*%
X340927812Y-110608750D03*
X340927812Y-107308750D03*
%TD*%
%TO.C,D35*%
X379027812Y-91558750D03*
X379027812Y-88258750D03*
%TD*%
D20*
%TO.C,C8*%
X343120000Y-128460000D03*
X344080000Y-128460000D03*
%TD*%
D12*
%TO.C,SW65*%
X225617812Y-124675000D03*
X239067812Y-122135000D03*
%TD*%
D18*
%TO.C,SW99*%
X295106562Y-167855000D03*
X281656562Y-170395000D03*
%TD*%
D12*
%TO.C,SW24*%
X154180312Y-86575000D03*
X167630312Y-84035000D03*
%TD*%
D11*
%TO.C,D8*%
X193290312Y-67746250D03*
X193290312Y-64446250D03*
%TD*%
D21*
%TO.C,U4*%
X352720000Y-116715000D03*
X352720000Y-117985000D03*
X352720000Y-119255000D03*
X352720000Y-120525000D03*
X345520000Y-120525000D03*
X345520000Y-119255000D03*
X345520000Y-117985000D03*
X345520000Y-116715000D03*
%TD*%
D12*
%TO.C,SW87*%
X42261562Y-162775000D03*
X55711562Y-160235000D03*
%TD*%
D11*
%TO.C,D4*%
X112327812Y-67746250D03*
X112327812Y-64446250D03*
%TD*%
%TO.C,D49*%
X320290312Y-119340000D03*
X320290312Y-116040000D03*
%TD*%
%TO.C,D68*%
X93277812Y-148708750D03*
X93277812Y-145408750D03*
%TD*%
D18*
%TO.C,SW92*%
X106987812Y-167855000D03*
X93537812Y-170395000D03*
%TD*%
D12*
%TO.C,SW76*%
X139892812Y-143725000D03*
X153342812Y-141185000D03*
%TD*%
D22*
%TO.C,D53*%
X62384062Y-124040000D03*
X59084062Y-124040000D03*
%TD*%
D12*
%TO.C,SW53*%
X349442812Y-105625000D03*
X362892812Y-103085000D03*
%TD*%
%TO.C,SW61*%
X149417812Y-124675000D03*
X162867812Y-122135000D03*
%TD*%
D11*
%TO.C,D89*%
X340927812Y-167758750D03*
X340927812Y-164458750D03*
%TD*%
D12*
%TO.C,SW51*%
X304199062Y-115150000D03*
X317649062Y-112610000D03*
%TD*%
%TO.C,SW37*%
X44642812Y-105625000D03*
X58092812Y-103085000D03*
%TD*%
%TO.C,SW62*%
X168467812Y-124675000D03*
X181917812Y-122135000D03*
%TD*%
D11*
%TO.C,D72*%
X169477812Y-148708750D03*
X169477812Y-145408750D03*
%TD*%
%TO.C,D7*%
X174240312Y-67746250D03*
X174240312Y-64446250D03*
%TD*%
%TO.C,D43*%
X193290312Y-110608750D03*
X193290312Y-107308750D03*
%TD*%
D23*
%TO.C,U3*%
X326972812Y-61212500D03*
X326972812Y-62162500D03*
X327047812Y-63112500D03*
X324622812Y-63112500D03*
X324622812Y-62162500D03*
X324622812Y-61212500D03*
%TD*%
D18*
%TO.C,SW72*%
X78412812Y-148805000D03*
X64962812Y-151345000D03*
%TD*%
D13*
%TO.C,C14*%
X321570312Y-73712500D03*
X320610312Y-73712500D03*
%TD*%
D11*
%TO.C,D69*%
X112327812Y-148708750D03*
X112327812Y-145408750D03*
%TD*%
D12*
%TO.C,SW34*%
X330392812Y-86575000D03*
X343842812Y-84035000D03*
%TD*%
D20*
%TO.C,C13*%
X320590312Y-68532500D03*
X321550312Y-68532500D03*
%TD*%
D18*
%TO.C,SW31*%
X302250312Y-91655000D03*
X288800312Y-94195000D03*
%TD*%
D16*
%TO.C,R1*%
X329560000Y-139650000D03*
X328540000Y-139650000D03*
%TD*%
D14*
%TO.C,C5*%
X333992224Y-122065858D03*
X333992224Y-121105858D03*
%TD*%
D12*
%TO.C,SW43*%
X163705312Y-105625000D03*
X177155312Y-103085000D03*
%TD*%
D11*
%TO.C,D91*%
X379027812Y-167758750D03*
X379027812Y-164458750D03*
%TD*%
D12*
%TO.C,SW5*%
X120842812Y-62762500D03*
X134292812Y-60222500D03*
%TD*%
D11*
%TO.C,D16*%
X359977812Y-67746250D03*
X359977812Y-64446250D03*
%TD*%
%TO.C,D55*%
X102802812Y-129658750D03*
X102802812Y-126358750D03*
%TD*%
D12*
%TO.C,SW96*%
X254192812Y-162775000D03*
X267642812Y-160235000D03*
%TD*%
D11*
%TO.C,D62*%
X236152812Y-129658750D03*
X236152812Y-126358750D03*
%TD*%
%TO.C,D87*%
X295684062Y-160490000D03*
X295684062Y-163790000D03*
%TD*%
%TO.C,D79*%
X303621562Y-149377500D03*
X303621562Y-152677500D03*
%TD*%
%TO.C,D47*%
X269490312Y-110608750D03*
X269490312Y-107308750D03*
%TD*%
D12*
%TO.C,SW74*%
X101792812Y-143725000D03*
X115242812Y-141185000D03*
%TD*%
D11*
%TO.C,D41*%
X155190312Y-110608750D03*
X155190312Y-107308750D03*
%TD*%
%TO.C,D58*%
X159952812Y-129658750D03*
X159952812Y-126358750D03*
%TD*%
D12*
%TO.C,SW82*%
X254192812Y-143725000D03*
X267642812Y-141185000D03*
%TD*%
D11*
%TO.C,D29*%
X259965312Y-91558750D03*
X259965312Y-88258750D03*
%TD*%
D12*
%TO.C,SW98*%
X278005312Y-162775000D03*
X291455312Y-160235000D03*
%TD*%
%TO.C,SW49*%
X278005312Y-105625000D03*
X291455312Y-103085000D03*
%TD*%
D11*
%TO.C,D82*%
X83752812Y-160490000D03*
X83752812Y-163790000D03*
%TD*%
D12*
%TO.C,SW89*%
X66074062Y-162775000D03*
X79524062Y-160235000D03*
%TD*%
D11*
%TO.C,D20*%
X88515312Y-91558750D03*
X88515312Y-88258750D03*
%TD*%
%TO.C,D88*%
X319496562Y-160490000D03*
X319496562Y-163790000D03*
%TD*%
D13*
%TO.C,C6*%
X332400312Y-128482500D03*
X331440312Y-128482500D03*
%TD*%
D11*
%TO.C,D25*%
X183765312Y-91558750D03*
X183765312Y-88258750D03*
%TD*%
D12*
%TO.C,SW58*%
X92267812Y-124675000D03*
X105717812Y-122135000D03*
%TD*%
D11*
%TO.C,D76*%
X245677812Y-148708750D03*
X245677812Y-145408750D03*
%TD*%
D12*
%TO.C,SW75*%
X120842812Y-143725000D03*
X134292812Y-141185000D03*
%TD*%
%TO.C,SW2*%
X63692812Y-62762500D03*
X77142812Y-60222500D03*
%TD*%
%TO.C,SW32*%
X297055312Y-86575000D03*
X310505312Y-84035000D03*
%TD*%
%TO.C,SW80*%
X216092812Y-143725000D03*
X229542812Y-141185000D03*
%TD*%
D11*
%TO.C,D2*%
X74227812Y-67746250D03*
X74227812Y-64446250D03*
%TD*%
%TO.C,D40*%
X136140312Y-110608750D03*
X136140312Y-107308750D03*
%TD*%
D18*
%TO.C,SW56*%
X61744062Y-129755000D03*
X48294062Y-132295000D03*
%TD*%
D15*
%TO.C,R2*%
X337316562Y-117937500D03*
X337316562Y-119587500D03*
%TD*%
D11*
%TO.C,D26*%
X202815312Y-91558750D03*
X202815312Y-88258750D03*
%TD*%
%TO.C,D6*%
X155190312Y-67746250D03*
X155190312Y-64446250D03*
%TD*%
D12*
%TO.C,SW66*%
X244667812Y-124675000D03*
X258117812Y-122135000D03*
%TD*%
D14*
%TO.C,C7*%
X338990312Y-119350000D03*
X338990312Y-118390000D03*
%TD*%
D24*
%TO.C,U2*%
X338390312Y-127852500D03*
X338390312Y-126577500D03*
X337115312Y-127852500D03*
X337115312Y-126577500D03*
D25*
X341190312Y-124615000D03*
X341190312Y-125015000D03*
X341190312Y-125415000D03*
X341190312Y-125815000D03*
X341190312Y-126215000D03*
X341190312Y-126615000D03*
X341190312Y-127015000D03*
X341190312Y-127415000D03*
X341190312Y-127815000D03*
X341190312Y-128215000D03*
X341190312Y-128615000D03*
X341190312Y-129015000D03*
X341190312Y-129415000D03*
X341190312Y-129815000D03*
D26*
X340352812Y-130652500D03*
X339952812Y-130652500D03*
X339552812Y-130652500D03*
X339152812Y-130652500D03*
X338752812Y-130652500D03*
X338352812Y-130652500D03*
X337952812Y-130652500D03*
X337552812Y-130652500D03*
X337152812Y-130652500D03*
X336752812Y-130652500D03*
X336352812Y-130652500D03*
X335952812Y-130652500D03*
X335552812Y-130652500D03*
X335152812Y-130652500D03*
D25*
X334315312Y-129815000D03*
X334315312Y-129415000D03*
X334315312Y-129015000D03*
X334315312Y-128615000D03*
X334315312Y-128215000D03*
X334315312Y-127815000D03*
X334315312Y-127415000D03*
X334315312Y-127015000D03*
X334315312Y-126615000D03*
X334315312Y-126215000D03*
X334315312Y-125815000D03*
X334315312Y-125415000D03*
X334315312Y-125015000D03*
X334315312Y-124615000D03*
D26*
X335152812Y-123777500D03*
X335552812Y-123777500D03*
X335952812Y-123777500D03*
X336352812Y-123777500D03*
X336752812Y-123777500D03*
X337152812Y-123777500D03*
X337552812Y-123777500D03*
X337952812Y-123777500D03*
X338352812Y-123777500D03*
X338752812Y-123777500D03*
X339152812Y-123777500D03*
X339552812Y-123777500D03*
X339952812Y-123777500D03*
X340352812Y-123777500D03*
%TD*%
D12*
%TO.C,SW22*%
X116080312Y-86575000D03*
X129530312Y-84035000D03*
%TD*%
%TO.C,SW4*%
X101792812Y-62762500D03*
X115242812Y-60222500D03*
%TD*%
%TO.C,SW84*%
X289911562Y-143725000D03*
X303361562Y-141185000D03*
%TD*%
%TO.C,SW45*%
X201805312Y-105625000D03*
X215255312Y-103085000D03*
%TD*%
D27*
%TO.C,R5*%
X352740000Y-113870000D03*
X352740000Y-114890000D03*
%TD*%
D12*
%TO.C,SW78*%
X177992812Y-143725000D03*
X191442812Y-141185000D03*
%TD*%
%TO.C,SW16*%
X349442812Y-62762500D03*
X362892812Y-60222500D03*
%TD*%
D11*
%TO.C,D23*%
X145665312Y-91558750D03*
X145665312Y-88258750D03*
%TD*%
%TO.C,D75*%
X226627812Y-148708750D03*
X226627812Y-145408750D03*
%TD*%
D12*
%TO.C,SW104*%
X368492812Y-162775000D03*
X381942812Y-160235000D03*
%TD*%
%TO.C,SW59*%
X111317812Y-124675000D03*
X124767812Y-122135000D03*
%TD*%
%TO.C,SW79*%
X197042812Y-143725000D03*
X210492812Y-141185000D03*
%TD*%
%TO.C,SW47*%
X239905312Y-105625000D03*
X253355312Y-103085000D03*
%TD*%
D11*
%TO.C,D36*%
X55177812Y-110608750D03*
X55177812Y-107308750D03*
%TD*%
D12*
%TO.C,SW25*%
X173230312Y-86575000D03*
X186680312Y-84035000D03*
%TD*%
D11*
%TO.C,D57*%
X140902812Y-129658750D03*
X140902812Y-126358750D03*
%TD*%
D12*
%TO.C,SW44*%
X182755312Y-105625000D03*
X196205312Y-103085000D03*
%TD*%
%TO.C,SW13*%
X282767812Y-62762500D03*
X296217812Y-60222500D03*
%TD*%
%TO.C,SW77*%
X158942812Y-143725000D03*
X172392812Y-141185000D03*
%TD*%
D18*
%TO.C,SW83*%
X295106562Y-148805000D03*
X281656562Y-151345000D03*
%TD*%
D12*
%TO.C,SW63*%
X187517812Y-124675000D03*
X200967812Y-122135000D03*
%TD*%
D22*
%TO.C,D78*%
X299777812Y-152615000D03*
X296477812Y-152615000D03*
%TD*%
D11*
%TO.C,D77*%
X264727812Y-148708750D03*
X264727812Y-145408750D03*
%TD*%
D20*
%TO.C,C4*%
X320610312Y-74872500D03*
X321570312Y-74872500D03*
%TD*%
D12*
%TO.C,SW52*%
X330392812Y-105625000D03*
X343842812Y-103085000D03*
%TD*%
D28*
%TO.C,C15*%
X341080589Y-138319411D03*
X341759411Y-137640589D03*
%TD*%
D11*
%TO.C,D54*%
X83752812Y-129658750D03*
X83752812Y-126358750D03*
%TD*%
%TO.C,D60*%
X198052812Y-129658750D03*
X198052812Y-126358750D03*
%TD*%
%TO.C,D90*%
X359977812Y-167758750D03*
X359977812Y-164458750D03*
%TD*%
%TO.C,D73*%
X188527812Y-148708750D03*
X188527812Y-145408750D03*
%TD*%
%TO.C,D28*%
X240915312Y-91558750D03*
X240915312Y-88258750D03*
%TD*%
%TO.C,D64*%
X274252812Y-129658750D03*
X274252812Y-126358750D03*
%TD*%
D12*
%TO.C,SW46*%
X220855312Y-105625000D03*
X234305312Y-103085000D03*
%TD*%
D11*
%TO.C,D85*%
X249646562Y-160490000D03*
X249646562Y-163790000D03*
%TD*%
D13*
%TO.C,C10*%
X332800312Y-124380000D03*
X331840312Y-124380000D03*
%TD*%
D12*
%TO.C,SW23*%
X135130312Y-86575000D03*
X148580312Y-84035000D03*
%TD*%
D11*
%TO.C,D37*%
X78990312Y-110608750D03*
X78990312Y-107308750D03*
%TD*%
D18*
%TO.C,SW101*%
X318919062Y-167855000D03*
X305469062Y-170395000D03*
%TD*%
D11*
%TO.C,D84*%
X183765312Y-159696250D03*
X183765312Y-162996250D03*
%TD*%
D29*
%TO.C,C16*%
X338089411Y-138659411D03*
X337410589Y-137980589D03*
%TD*%
D20*
%TO.C,C12*%
X342400312Y-124402500D03*
X343360312Y-124402500D03*
%TD*%
D11*
%TO.C,D51*%
X359977812Y-110608750D03*
X359977812Y-107308750D03*
%TD*%
%TO.C,D71*%
X150427812Y-148708750D03*
X150427812Y-145408750D03*
%TD*%
D12*
%TO.C,SW55*%
X42261562Y-124675000D03*
X55711562Y-122135000D03*
%TD*%
%TO.C,SW38*%
X68455312Y-105625000D03*
X81905312Y-103085000D03*
%TD*%
%TO.C,SW21*%
X97030312Y-86575000D03*
X110480312Y-84035000D03*
%TD*%
%TO.C,SW15*%
X330392812Y-62762500D03*
X343842812Y-60222500D03*
%TD*%
D11*
%TO.C,D34*%
X359977812Y-91558750D03*
X359977812Y-88258750D03*
%TD*%
%TO.C,D81*%
X59940312Y-160490000D03*
X59940312Y-163790000D03*
%TD*%
%TO.C,D17*%
X379027812Y-67746250D03*
X379027812Y-64446250D03*
%TD*%
D12*
%TO.C,SW81*%
X235142812Y-143725000D03*
X248592812Y-141185000D03*
%TD*%
%TO.C,SW8*%
X182755312Y-62762500D03*
X196205312Y-60222500D03*
%TD*%
D18*
%TO.C,SW70*%
X56981562Y-148805000D03*
X43531562Y-151345000D03*
%TD*%
D12*
%TO.C,SW19*%
X58930312Y-86575000D03*
X72380312Y-84035000D03*
%TD*%
D22*
%TO.C,D66*%
X54290312Y-155062500D03*
X50990312Y-155062500D03*
%TD*%
D30*
%TO.C,R4*%
X338449376Y-134440624D03*
X339170624Y-133719376D03*
%TD*%
D12*
%TO.C,SW68*%
X282767812Y-124675000D03*
X296217812Y-122135000D03*
%TD*%
%TO.C,SW6*%
X144655312Y-62762500D03*
X158105312Y-60222500D03*
%TD*%
D31*
%TO.C,R6*%
X328050312Y-57452500D03*
X329070312Y-57452500D03*
%TD*%
D18*
%TO.C,SW50*%
X316537812Y-110705000D03*
X303087812Y-113245000D03*
%TD*%
D32*
%TO.C,SW1*%
X40400312Y-62762500D03*
D12*
X53330312Y-60222500D03*
%TD*%
%TO.C,SW64*%
X206567812Y-124675000D03*
X220017812Y-122135000D03*
%TD*%
D11*
%TO.C,D24*%
X164715312Y-91558750D03*
X164715312Y-88258750D03*
%TD*%
%TO.C,D21*%
X107565312Y-91558750D03*
X107565312Y-88258750D03*
%TD*%
%TO.C,D59*%
X179002812Y-129658750D03*
X179002812Y-126358750D03*
%TD*%
%TO.C,D86*%
X271871562Y-160490000D03*
X271871562Y-163790000D03*
%TD*%
D12*
%TO.C,SW10*%
X225617812Y-62762500D03*
X239067812Y-60222500D03*
%TD*%
D11*
%TO.C,D30*%
X279015312Y-91558750D03*
X279015312Y-88258750D03*
%TD*%
%TO.C,D22*%
X126615312Y-91558750D03*
X126615312Y-88258750D03*
%TD*%
%TO.C,D12*%
X274252812Y-67746250D03*
X274252812Y-64446250D03*
%TD*%
D33*
%TO.C,U1*%
X322510312Y-72080000D03*
X320610312Y-72080000D03*
X321560312Y-70205000D03*
%TD*%
D12*
%TO.C,SW71*%
X51786562Y-143725000D03*
X65236562Y-141185000D03*
%TD*%
D11*
%TO.C,D48*%
X288540312Y-110608750D03*
X288540312Y-107308750D03*
%TD*%
D18*
%TO.C,SW33*%
X321300312Y-91655000D03*
X307850312Y-94195000D03*
%TD*%
D11*
%TO.C,D31*%
X285365312Y-96321250D03*
X285365312Y-93021250D03*
%TD*%
D12*
%TO.C,SW93*%
X161324062Y-162775000D03*
X174774062Y-160235000D03*
%TD*%
D11*
%TO.C,D67*%
X62020312Y-148762500D03*
X62020312Y-152062500D03*
%TD*%
%TO.C,D65*%
X309840000Y-129920000D03*
X309840000Y-126620000D03*
%TD*%
D12*
%TO.C,SW103*%
X349442812Y-162775000D03*
X362892812Y-160235000D03*
%TD*%
D11*
%TO.C,D1*%
X50415312Y-67746250D03*
X50415312Y-64446250D03*
%TD*%
D12*
%TO.C,SW67*%
X263717812Y-124675000D03*
X277167812Y-122135000D03*
%TD*%
D11*
%TO.C,D74*%
X207577812Y-148708750D03*
X207577812Y-145408750D03*
%TD*%
%TO.C,D10*%
X236152812Y-67746250D03*
X236152812Y-64446250D03*
%TD*%
D18*
%TO.C,SW88*%
X59362812Y-167855000D03*
X45912812Y-170395000D03*
%TD*%
D11*
%TO.C,D61*%
X217102812Y-129658750D03*
X217102812Y-126358750D03*
%TD*%
%TO.C,D27*%
X221865312Y-91558750D03*
X221865312Y-88258750D03*
%TD*%
D12*
%TO.C,SW57*%
X73217812Y-124675000D03*
X86667812Y-122135000D03*
%TD*%
D34*
%TO.C,J3*%
X324310312Y-84222500D03*
X325310312Y-84222500D03*
X326310312Y-84222500D03*
X327310312Y-84222500D03*
D35*
X328610312Y-80347500D03*
X323010312Y-80347500D03*
%TD*%
D18*
%TO.C,SW85*%
X321300312Y-148805000D03*
X307850312Y-151345000D03*
%TD*%
D12*
%TO.C,SW39*%
X87505312Y-105625000D03*
X100955312Y-103085000D03*
%TD*%
D18*
%TO.C,SW90*%
X83175312Y-167855000D03*
X69725312Y-170395000D03*
%TD*%
D12*
%TO.C,SW20*%
X77980312Y-86575000D03*
X91430312Y-84035000D03*
%TD*%
D11*
%TO.C,D3*%
X93277812Y-67746250D03*
X93277812Y-64446250D03*
%TD*%
%TO.C,D80*%
X359977812Y-148708750D03*
X359977812Y-145408750D03*
%TD*%
%TO.C,D83*%
X107565312Y-160490000D03*
X107565312Y-163790000D03*
%TD*%
%TO.C,D14*%
X317115312Y-67746250D03*
X317115312Y-64446250D03*
%TD*%
%TO.C,D56*%
X121852812Y-129658750D03*
X121852812Y-126358750D03*
%TD*%
%TO.C,D13*%
X293302812Y-67746250D03*
X293302812Y-64446250D03*
%TD*%
%TO.C,D11*%
X255202812Y-67746250D03*
X255202812Y-64446250D03*
%TD*%
D32*
%TO.C,SW18*%
X40365312Y-86575000D03*
D12*
X53330312Y-84035000D03*
%TD*%
D11*
%TO.C,D5*%
X131377812Y-67746250D03*
X131377812Y-64446250D03*
%TD*%
%TO.C,D70*%
X131377812Y-148708750D03*
X131377812Y-145408750D03*
%TD*%
%TO.C,D46*%
X250440312Y-110608750D03*
X250440312Y-107308750D03*
%TD*%
D14*
%TO.C,C17*%
X343710000Y-116710000D03*
X343710000Y-115750000D03*
%TD*%
D12*
%TO.C,SW91*%
X89886562Y-162775000D03*
X103336562Y-160235000D03*
%TD*%
D22*
%TO.C,D32*%
X312370312Y-98052500D03*
X309070312Y-98052500D03*
%TD*%
D11*
%TO.C,D63*%
X255202812Y-129658750D03*
X255202812Y-126358750D03*
%TD*%
D12*
%TO.C,SW100*%
X301817812Y-162775000D03*
X315267812Y-160235000D03*
%TD*%
D11*
%TO.C,D38*%
X98040312Y-110608750D03*
X98040312Y-107308750D03*
%TD*%
D18*
%TO.C,SW94*%
X187950312Y-167855000D03*
X174500312Y-170395000D03*
%TD*%
D11*
%TO.C,D33*%
X340927812Y-91558750D03*
X340927812Y-88258750D03*
%TD*%
D12*
%TO.C,SW54*%
X368492812Y-105625000D03*
X381942812Y-103085000D03*
%TD*%
%TO.C,SW27*%
X211330312Y-86575000D03*
X224780312Y-84035000D03*
%TD*%
%TO.C,SW41*%
X125605312Y-105625000D03*
X139055312Y-103085000D03*
%TD*%
M02*
